<?xml version="1.0" encoding="utf-8"?>
<!-- Generator: Adobe Illustrator 18.0.0, SVG Export Plug-In . SVG Version: 6.00 Build 0)  -->
<!DOCTYPE svg PUBLIC "-//W3C//DTD SVG 1.1//EN" "http://www.w3.org/Graphics/SVG/1.1/DTD/svg11.dtd">
<svg version="1.1" id="Слой_1" xmlns="http://www.w3.org/2000/svg" xmlns:xlink="http://www.w3.org/1999/xlink" x="0px" y="0px"
	 viewBox="272.1 0 1317.9 1200" enable-background="new 272.1 0 1317.9 1200" xml:space="preserve">
<path fill="#000000"      d="
	M1580.3,305.9c0,0-2.8-7.2-3.9-12.2c0,0-4.4-7.2-23.3-12.8c0,0-3.9-1.1-3.9-7.8c0,0-1.1-7.8-10-10.6l-4.4-10c0,0,3.3-14.4,3.3-17.8
	c0,0,8.3,20,20,13.3c0,0,8.3-3.9,6.7-21.1c0,0-8.9-25-16.7-27.8c0,0-9.4-3.9-13.3,2.8c0,0-11.7,2.8-11.7,7.2c0,0-11.1,2.8-13.3,0.6
	c0,0-11.7-13.9-17.2-12.8c0,0-10-1.7-12.2,7.8c0,0-9.4,0-19.4-1.7c0,0-40,0-47.2,4.4c0,0-66.6-13.9-100.5,13.9c0,0-15-5-30,2.8
	c0,0-11.1,7.2-13.9,22.2c0,0-11.1,20.5-10,25.5c0,0-42.8,46.6-32.2,86.1c0,0,1.1,25.6-5,26.1c0,0-27.2,6.1-30.5,11.7l-48.9-23.8
	c0,0-6.9-3.8-3.9-3.8c5.3,0.2,2.3-11.4,2.3-11.4h-2.3c0-4.8-1.2-16.6-1.2-16.6l1.7-21.4c2.5-5.8,3-24.7,3-24.7
	c18.1-19.8-5.3-32.8-5.3-32.8c-7.8-6.6-3.8-12.3-3.8-12.3c5-3.7,16.1-13.4,16.1-13.4c7.8-8.3,21.1-15.5,21.1-15.5
	c8.3-2,27.3-20.8,27.3-20.8l2-2.8c0.9,0.9,3.3,0.9,3.3,0.9l17.3-13.4c2-2,2.3-4.4,2.3-4.4c1.4,0.6,7.3,1.1,7.3,1.1
	c4.8,0,10.2-1.9,10.2-1.9l1.2,1.3c3.1,1.1,5.5-5.2,5.5-5.2l1.4-0.9c4.5-3-3.3-14.2-3.3-14.2c-0.2-1.9-1.4-3.4-1.4-3.4
	c-4.5-3.3-29.1,9.8-29.1,9.8c-0.5-1.4-2.5-0.6-2.5-0.6l-19.8,11.6c-0.9,1.1-2.3,5.3-2.3,5.3c-2.3,2.5-20.8,9.2-20.8,9.2
	c-11.1,3-16.9,11.7-16.9,11.7c-1.9,3.4-10.8,9.7-10.8,9.7c-5,1.9-15,7.8-15,7.8l-4.5-0.6l0.9-4.2c1.1-1.1,2.8-11.1,2.8-11.1
	c6.7-7.2-2.5-25.5-2.5-25.5c0-7.8-12.8-12.8-12.8-12.8c-20.3-12.3-33.6,7.8-33.6,7.8c-7.8,0.5-10.8,14.8-10.8,14.8
	c-5,0-4.5,11.1-4.5,11.1c-5.3,6.2,3.8,17,3.8,17c-5.8,0.5-1.9,9.5-1.9,9.5c4.4,11.6,15.5,12,15.5,12l-10.8,9.1
	c-8.7,1.7-12.3,15.8-12.3,15.8c-2.5,5-7.8,11.1-7.8,11.1l-0.3-3.7l2-1.1l0.6-18.4l-0.6-1.6c0,0,5-4.4,7.2-6.2c0,0,13.1-11.6,4.7-9.4
	c0,0-5.5,4.2-8.1,3.4l-1.9-3.8c0,0,5.9-5.9,0-4.2l-0.6-2.8c0,0,4.5-5.8,4.4-7.7c0,0-2-1.6-3.9,2.5l-4.2,3.9l-1.9,4.5
	c0,0-3.3,1.9-2.5,3.9c0,0-2.8,2.3-2,5.3l-1.9,9.4c0,0-2.8,0.5-3.8,2l-4.4,18.3l1.1,1.1c0,0-9.7,33.4-1.4,38.9c0,0,8.1,0.5,13.8-2.2
	c0,0,22.2-16.9,23.8-24.1c0,0,14.2,21.4,15.8,43l-2,19.1h-3.1c0,0-7.2,2.7-6.9,8c0,0-1.7,2.8-5,7.3c0,0-18.6,18-7,36.1l-1.7,9.8
	c0,0-5.3,5.5-2.5,9.2c0,0-9.1,15.9-7,28.4c0,0-1.2,16.4-3.8,18.6c0,0-6.6,12-6.6,14.1c0,0-16.1,14.8-17,22.8
	c0,0-11.1-24.1-13.6-27.3c0,0-2-9.5-5.3-12c0,0-13.6-26.4-16.1-26.9c0,0-7.7-24.8-15-30.2c0,0,3.4-4.1,3.8-9.1
	c0,0-1.9-20.3-3.8-21.9c0,0-2.8-3-6.1-2c0,0-7,2-3.3-33.6c0,0,12.8-33.1,14.5-42.7c0,0,7-11.1,6.2-20.3c0,0,8.3-17,6.6-36.4
	c0,0,4.5-16.6,2.5-20.6c0,0,16.6-21.9,12.3-55.9c0,0,3-16.1,3-18.6c0,0,41.4,16.6,58,9.5c0,0,1.7-7-5.9-21.9l0,0
	c0,0-6.2,20-69.7-13.3c0,0-90.3-44.7-116.7-95.9c0,0-8.6-15.2,2.7-15.8c-7.8-0.9-15.9-1.4-24.2-1.2c0,0-8,1.2,2.5,17.3
	c0,0,45.6,67,98.9,92.3c0,0,1.2,20.6,12.3,27.7c0,0-0.5,5,0.8,8.8c0,0-11.2,7-11.6,28.9l-1.2,5.3c0,0-9.2,2.5-12.7,8.3
	c0,0,0.6-18.3-3-14.5c0,0,2-29.8-27.3-30.2c0,0-30.2,1.2-24.4,35.6c0,0-6.6-2.5-2,14.8c0,0,2,4.5,3.8,3.7c0,0,4.1,16.6,6.2,18.3
	c0,0,1.7,4.5-0.5,7c0,0-0.8,5,0.5,5.3l-1.7,7c0,0-10,8.3-10.8,11.6c0,0-17,3.7-22.3,33.4c0,0-3,12.3,3,17.8c0,0-7.8,18.3,7.5,50.5
	l-0.5,6.2c0,0-15.3,14.1-14.5,17.8l-2-0.5l-15.8,9.5c0,0-2,2.5-3.3,2.5l-14.8-7.8c0,0-7.5-3.3-8.7,3c0,0-7.5,5.3-8.3,8.8
	c0,0-8.3,14.1-1.7,16.6c0,0-1.7,8.3,7,7.8c0,0,1.7,4.5,8.8,3.8c0,0,5,6.2,13.3,0.5l8.3-1.6c0,0,6.2,3.1,7.8,1.6h3.4l12.3-9.1
	l-3.8,6.6c0,0-8.3,0.2-11.6,7.2c0,0-19.8,11.4-24.4,20.6l-22.5,30.9c0,0-13.3,8.6-16.6,14.7c0,0,7-38.9,2.5-43.6
	c0,0-4.1-14.5-10.8-15c0,0-4.1-5-0.5-22.3c0,0,10-37.2-3-46.4c0,0,10.3-17,6.6-24.8c0,0,6.6-7-2-17l-16.1-24.8l22.8,5
	c0,0,5,3,7.8,1.7c0,0,13.3,11.1,15.3,9.5l3-2.5l7.8,2.5l4.5-6.2l6.6,1.7l8.3-10c0,0-3.3-4.1-7,0.8l-6.2,0.5c0,0-1.7-3.3,0.5-3.3
	c0,0,11.6-0.5,12-12.3c0,0-2-3.3-7.5,5l-8.3,1.2l-7.8-5.3c0,0-2-5,1.7-7c0,0,14.1-13.3,0.8-9.5l-9.1,6.2c0,0-8.3-0.8-11.3,1.2
	l-5,0.8c0,0-34.8-21.1-37.3-21.1c0,0,6.6-11.6,9.1-30.2l-3.6-7l0.3-7.5v-19.1c0,0-4.5-14.5-14.5-15l-5.3-9.5
	c0,0-13.8-13.3-20.8-13.3l-1.1-14.8c0,0,6.9-3.8,5.6-11.6c0,0,4.2-31.1-18.9-38.1c0,0-19.8-8.3-32.7,5.8l-8,8.8
	c0,0-8.4,8.8-5.3,10.3v3.6c0,0,2.2,10.8,11.7,17.5l3.4,9.5c0,0-14.7-3-20.8,1.2c0,0-17.2-9.1-28.9-2c0,0-13-3.3-16.2-3
	c0,0-14.4-10.2-19.1-8.8c0,0-1.1-12.2-17.8-14.8l-13.4-1.7c0,0,2.3-20.3-2.7-22.7c0,0-1.7-0.5-3.6,4.1c0,0,4.1-32,0-33
	c0,0-2.7-1.9-4.1,12.7l-2.2,12.7c0,0-3.1-28.9-6.2-29.8c0,0-5.9-0.9-2.2,13.6c0,0,0.3,16.7-1.2,17.7c0,0-4.7-15.3-7.3-15.8
	c0,0-13.6-13.1-7.7-0.5l4.5,6.9l3.1,10c0,0-10.5-9.5-19.8-10.5c0,0-1.9,4.1,5.5,6.4c0,0,9.5,8.1,9.5,12.7c0,0,2.3,22.2,9.2,28.6
	l9.2,6.2c0,0,16.7,24.1,31.7,28.6c0,0,16.2,16.1,22.7,17l27.5,23.1h4.4l6.6-0.3c0,0-4.1,20.9,19.1,54.8c0,0,10.5,10.2,9.1,17.5
	c0,0,0.9,17.5,5,21.1c0,0,0.9,5.2-2.7,8.8c0,0-4.1,10.8-1.9,25.2c0,0-8.6,9.8-2.2,28.9l6.9,22.2c0,0,13,45.6,24.4,55.6L642,399.8
	c0,0-1.2-3-7.7-3.1c-0.3,0-0.6,0-0.9,0c-7.2,0-7.7-5-10.8-4.5c0,0-3.6,0.5-5.9-2.2c0,0-6.2-10.8-10.5-2.7c0,0,2.7,5.9,0.9,8.6
	c0,0-10.2-2.7-10.9-4.5c0,0-3.9-10-8.4-13.6c0,0-4.5-4.5-4.1-8.1l-2.7-6.4c0,0-5.5-12.7-10.5-12.7c0,0-2.2-4.5-4.1-5l-11.7-4.5
	c0,0-5.9-0.5-3.6,6.4c0,0-2.2-0.2-5.2-0.3l-6.9-8.9c0.2-1.1,0.3-2.3,0.2-3.9c0,0,1.4-12.2-3.6-9.1c0,0-1.4-6.4-0.9-9.1
	c0,0,2.2-22.7-21.2-26.7c0,0-5.2-0.5-11.4,0.6L397,154.7c3.9-6.4,5.5-12.5,2.3-17c0,0,0.5,19.4-37,43c0,0-47.8,33-42.8,55.6
	c0,0-6.9,7.7-3.3,13.3l3.3,5.2c0,0-11.7,9.1,0,29.4c0,0,0.9,5.9-5.2,14.8c0,0-3.6,5.3-5,10.5l-5.5-3.6l-16.2,3.4
	c0,0-4.7,3.1,2.7,6.7l11.6,5.8c-2.7,2.3-4.5,5.5-1.9,8.9c0,0-6.2,6.4-1.2,11.7c0,0-1.9,3.1,2.2,6.4c0,0-1.9,6.7,4.5,9.5
	c0,0,0,3.1-3.6,5c0,0-2.7,10.9,3.1,18.1c0,0,15.8,27,0,42.5c0,0-11.2,4.4,2.7,27.3c0,0-1.9,13.7,5,17.8c0,0,1.6,19.1,14.2,31.2
	c0,0,20,22.5,28.8,31.9c0,0,4.7,4.1,8.9,10.8l-0.3,0.3l1.1,1.1c3.1,5.2,5.8,11.7,6.1,19.2c0,0,3.6,5.5,3.6-5c0,0-0.3-7.7-4.8-16.9
	l96.2-97.8c3.1,9.8,9.7,28.1,16.9,35l1.9,3.8c0,0,3,21.6,0,24.4c0,0-3.3,3.3-5.6,3.3c0,0-13.7-8.6-24.1-8.6c0,0-20.3-11.1-35.2,2.7
	c0,0-14.4,14.4-9.7,20.8c0,0-6.2,8.6-2.2,21.1c0,0-6.2,5.9-4.1,15.9c0,0,1.1,6.2-2.2,10.3c0,0-5.9,14.8,3.3,17.3
	c0,0-0.8,7.8,2.7,8.6c0,0,3.3,15.2,5.9,21.1c2.7,5.9,4.4,22.2,4.4,22.2s4.1,18.6,2.7,21.9c0,0-4.8,22.2-10,26.7
	c0,0-12.7,5.6-10.5,20.8l-0.6,4.4c0,0-1.9,1.1-1.4,6.7c0,0,12.7,6.2,47,0c0,0,3-8.6,4.1-8.9c0,0,3.3-2.7,3,0.3c0,0,8.1-2,11.9-7.7
	l-1.1-5.2c0,0,0.3-12.7-4.1-15.6c0,0-0.8-6.7-2.2-7.8c-1.4-1.1,0.3-6.7-1.1-8.9c-1.4-2.2,0.3-10-1.1-11.4c0,0-3.8-7.3-1.9-12.2
	c0,0,0.8-10,0.8-15.9c0,0,7.8-25.6,5.9-30.3c0,0,6.2-3,5.2-7.8c0,0-1.4-13,3-9.7c0,0,27.3,18.9,57,19.2c0,0,13.8,3.8,24.4,22.7
	c0,0,17.3,27.3,23,29.2c0,0,7.8,7,8.9,10.8c0,0,3.8,8.6,10.3,14.1l4.4,6.7c0,0-0.8,10,1.1,12.2c0,0-4.1,24.4,6.2,27.3
	c0,0,7.3,16.7,15.6,14.1c0,0,3.8-0.3,6.7,8.1l3.3,14.8l-8.9,13.3c-6.4-5.2-14.7,13-14.7,13l-10,13.1c-13.1,6.9-15.3,45.6-15.3,45.6
	c0,4.7-1.6,23.1-1.6,23.1s-7.3,49.8-7.3,64.1c0,10.2-3.8,29.4-3.8,29.4c1.6,6.9-9.8,20.9-9.8,20.9c-8.9,5.8-8.6,21.2-8.6,21.2v4.5
	c11.3,15.8,48.9,4.7,48.9,4.7c14.2-5.3,12.7-24.7,12.7-24.7c-2-10.5,3.8-15.2,3.8-15.2c2.7-3.1-1.6-20.9-1.1-26.2
	c0.5-5.2-3.4-17.3-3.4-17.3c-2.7-6.7,2.8-13.8,2.8-13.8c6.2-7.8,11.6-25.5,11.6-25.5c1.6-11.9,12.7-20.8,12.7-20.8
	c13.6-9.4,22-28.9,22-28.9l3.8-6.2c2.7-3.1,3.8-12.7,3.8-12.7c2,0.5,6.1-9.1,6.1-9.1l1.6-5.8c4.8-0.5,15.2-19.4,15.2-19.4
	c3.9-8.9,9.5-8.4,9.5-8.4c27.3-1.1,61.4-32,61.4-32c0,5.8,5.3,23.1,5.3,23.1c4.2,5.8,4.2,20,4.2,20c-4.2,4.7-6.9,33.1-6.9,33.1
	c-4.7,0,0.5,26.7,0.5,26.7c2,18.9-0.5,59.8-0.5,59.8c-2.7-4.2-11.1-4.7-11.1-4.7l-50.9,5.8c-16.2,1.1-17.3,12.7-17.3,12.7l11.6,95.6
	c1.1,11.1,16.9,14.2,16.9,14.2l57.2-2.7c4.2-0.5,9.4-3.8,9.4-3.8c3.7-2.7,0-36.7,0-36.7c4.2,0,14.2-11.1,14.2-11.1
	c3.8-1.6,3.1-11.6,3.1-11.6c1.4-1.4,2.2-4.4,2.7-7.8l27.3-9.5c8.4-6.9,2-18.9,2-18.9c-5.8-4.8-20-0.2-30.9,4.5
	c-0.6-3.9-1.1-6.6-1.1-6.6l3.1-11.6c19.4-22.5,28.4-99.7,28.4-99.7l0.5-13.1l-2-2.7c2-5.8,0-20,0-20c8.9-0.5,58.3,40.5,58.3,40.5
	c12.7,14.7,33.6,12,33.6,14.2c0,2,9.4,4.2,9.4,4.2l4.2,5.3c2.2,11.1,26.6,12,26.6,12c16.2-4.2,25.3,5.3,25.3,5.3
	c-1.1,2.7,2,6.4,2,6.4v5.8c-3.3,12.8,5,23.9,5,23.9c10.8,30,33.6,52.2,33.6,52.2c-1.7,16.7,13.9,40,13.9,40
	c9.4,14.4,32.2,3.3,32.2,3.3l3.6,2.8c10,25.5,26.7,21.9,26.7,21.9c5.6-1.9,17.8-11.9,17.8-11.9c21.1,27.2,41.7-0.6,41.7-0.6
	c14.4,17.8,31.1,0,31.1,0c27.8-26.6,22.2-67.2,22.2-67.2c-6.7-16.7-22.2-22.2-22.2-22.2c8.3-25,59.4-91.6,59.4-91.6l18.3,17.2
	c16.1,13.3,50.3,23.9,50.3,23.9c10.5,9.4-7.8,20.6-7.8,20.6v3.9c4.8,0.6,8,6.1,8,6.1c3.3,3.9,2.5,7.8,2.5,7.8c0,3.9-2.2,8.9-2.2,8.9
	l6.7-1.7c0-3.3,4.2-5.6,4.2-5.6c6.2-3.3,3.3-6.1,3.3-6.1c-7.2-3.9,0-12.8,0-12.8l8.4,6.7c-2.8-3.3,2.8-7.2,2.8-7.2l2.8,6.7
	c0,40.5,34.4,52.7,34.4,52.7l11.1,22.2c6.7,9.4-2.8,20.5-2.8,20.5c-6.7,8.3-2.8,31.1-2.8,31.1c-3.9,7.2-5.6,25.5-5.6,25.5
	c1.7,12.8,13.9,20.5,13.9,20.5c-2.2,2.2-0.6,26.6-0.6,26.6c-20.5,30.5,8.3,51.1,8.3,51.1c8.9,1.7,6.7,8.3,6.7,8.3
	c-7.2,6.1,0,25,0,25c7.8,16.1,25.5,16.7,25.5,16.7c31.6,2.8,35-9.4,35-9.4c5.6,10,14.4,9.4,14.4,9.4c37.2-3.3,30.6-17.8,30.6-17.8
	c28.9,0,28.1-16.7,28.1-16.7c15-4.4,13.3-11.1,13.3-11.1c7.8-2.2,1.7-15.5,1.7-15.5c6.7-0.6,5-10,5-10c8.9-13.9-6.1-27.8-6.1-27.8
	s0,0,1.1-2.8s0-9.4,0-9.4c0-8.3-27.2-20-27.2-20c-5-3.3-10-15.5-10-15.5c-1.7-11.7-16.1-40-16.1-40c8.3-10-5.5-33.9-5.5-33.9
	c-2.2-8.3,6.4-27.7,6.4-27.7c18.6-29.4,19.1-70.5,19.1-70.5c0.6-35-34.8-62-34.8-62c-0.9-12.5-11.9-21.4-11.9-21.4l-2.8-11.1
	c-1.7-10-11.1-25.5-11.1-25.5l10-10c-2.8-4.4,3.3-10,3.3-10c2.2-5.6,8.9,0,8.9,0c-0.6-7.2,5-5.8,5-5.8c13.3,9.2,7.8-4.7,7.8-4.7
	c-2.2-6.1,11.7-5.6,11.7-5.6l-12.8-1.1c-1.7,3.9-7.2,1.1-7.2,1.1c-5.6-3.9-12.8,1.1-12.8,1.1c-7.8,7.2-13.9,1.7-13.9,1.7
	c3.3,4.4,0,6.1,0,6.1c-14.4,5.6-8.9-7.2-8.9-7.2c-7.8-3.3,0-12.2,0-12.2c-6.7-1.7-7.2-5.6-7.2-5.6c-1.7,3.3-10.5,8.3-10.5,8.3
	c-6.7-2.2,4.4-15,4.4-15c-3.9,3.3-10.6,2.2-10.6,2.2c1.1,5-7.8,9.4-7.8,9.4c-30.5-17.8-68.3-17.8-68.3-17.8
	c-2.2-3.9-18.3-5.6-18.3-5.6c-4.4-0.6-1.7-6.1-1.7-6.1c-1.7-6.1,11.1-18.3,11.1-18.3c27.8-26.6,20-55.5,20-55.5
	c15.5-16.1,16.7-52.2,16.7-52.2c10.5-22.2,7.2-70,7.2-70c28.3-35.5,18.3-62.7,18.3-62.7c2.2-20.5-11.7-43.9-11.7-43.9s5.6-26.1,0-35
	c0,0,28.3-18.9,30.5-31.1l6.7-12.8c0,0,1.1,5,5.6,6.7c0,0-3.9,16.1,6.1,18.9c0,0,16.7,0.6,11.7-17.8c0,0,3.9-7.2,1.1-11.2
	c-1.6-2.3,1.1-7,1.1-7s3.9-2.8,10-1.1c0,0,27.8,15.5,48.9,10.5c0,0,20-1.7,30,11.7c0,0,6.1,28.3,31.1,15.5
	C1580.3,325.5,1588,314.4,1580.3,305.9z M798.4,286.6c1.4-1.7,4.7-1.4,7,0.8c2.5,2,3.3,5.2,1.7,6.9c-1.4,1.7-4.7,1.4-7-0.8
	C797.8,291.4,797,288.3,798.4,286.6z M531.7,117.3c-2.8,0-5.2-3.1-5.2-7.2s2.3-7.2,5.2-7.2s5.2,3.1,5.2,7.2
	C536.9,114.1,534.5,117.3,531.7,117.3z M368.6,538.6c-2.5-4.4-5.9-9.1-10.8-13.1c0,0-25.3-31.2-28.4-43c0,0,0.9-11.3-0.9-14.5
	c0,0,0.5-12.7-4.1-15.8c0,0-1.9-5.9,1.9-9.1c0,0,7.2-19.4,0.9-30.3l-9.1-27.2c0,0-4.5-15.8,2.7-18.6l1.4-3.3c0,0,7.8,0.3,11.6-2.2
	c0,0,1.9,4.8,14.1,10.3c0,0,4.4,0,8.9,2.7l22.7,12.2c0,0,3.3,10,11.9,5.6c0,0,8.6,1.4,11.9,1.4c0,0,8.1,3,11.6,2.2
	c0,0,33.3,14.1,38.4,13.3c0,0,1.4,7,6.7,14.4l3,11.9l1.9,1.4c0,0,0.3,1.1,0.9,3.1L368.6,538.6z M482,332.5c0,0,0,3.3,1.4,7.8
	c0,0,0,4.8,0,5l-152.7-18.8h-1.1l154.8,21.1c0.8,2.2,2.2,2.7,4.2,1.7l0.9,6.2c0,0-31.2-8.4-37.5,6.9c0,0-28-5.2-35.8,4.4
	c0,0-12.7-5.5-15.3-5.5c0,0-5.5-7.7-11.7-6.9c0,0-24.4-2.3-31.2-5.9c0,0-4.1-5.5-16.7-6.4l-8.1-7.7c0,0-3.1-7.7-8.1-9.5
	c0,0-0.6-1.4-0.6-5h0.2c0.5-5,1.9-13.3,5-22.8c0,0,16.7-31.1,4.1-44.5c0,0,5.9-12.7,3.1-19.4c0,0,0-21.9,28.9-46.7
	c0,0,19.4-14.7,29.4-29.1l102.7,133.1c-7.8,1.9-16.2,5.9-18.4,15.5C479.4,306.2,475.3,312.2,482,332.5z M535.5,342.3
	c0,0,0.8,0,1.6-0.8l4.2,5.3c-2.8,0-5.3,0-6.6,0.5L535.5,342.3z M526.2,362v1.6h23.3l-11.6,2.5C538,365.9,529.5,360.5,526.2,362z
	 M564.8,393.9h-3.9c0,0-13.6-12.3-21.7-9.1l-3.3-14.1c0,0,13.8-1.1,15-3.3c0,0,1.7,3.9,5.5,2.2c0,0,3.4,4.4,7,2.8l4.5,6.2
	C568.1,378.9,567.2,392.3,564.8,393.9z M650.8,706.1c0,0-3.7-16.1-12.8-22.3c0,0-5.8-31.4-12.3-32.7c0,0-3.3-26.4-9.5-28.1
	c0,0-17.8-55.5-31.9-61.2c0,0-5.3-15.3-9.5-16.4c0,0,1.2-12.2-3.3-15.5c0,0-3-16.1,0-24.4c0,0,15.3-56.2,2-68.3l3.3-7.3
	c0,0,12-5.9,13.3-15.9c0,0,3.8-8.8,4.1-10.3c0,0,5.8,8.3,4.5,13.3l-5,14.8c0,0-6.6,6.6-5,10.3c0,0-6.6,9.1,0,11.6
	c0,0,8.3-1.7,10.8-13.3c0,0,1.2-4.7,6.6-5.8c0,0,2.7-0.8,5.5-2.7c0,0,4.2,3.7,7.5,2.2c0,0,0.9,6.2,5,5.5l8,5l7.8,13.3l7.8,18.9
	c0,0,3.3,11.7,5.8,11.7c1.1,0,1.6,0,1.7,0l4.1,2.2c0,0-14.8,11.1-15.3,22.7c0,0-20.3,35.9-12,50.8c0,0-0.5,9.1,4.5,13.3
	c5,4.1-2.5,8.1,3,13.4c0,0-12,11.1-3,18.1c0,0-3-9.7,3.8-8.9c0,0-1.7,7.7,6.6,8.9c0,0-4.1-5.8-0.8-6.2c0,0,1.2,6.6,9.1,6.2
	c0,0,5.8,25.3,12,28.6l3.8,3l10,27.3l6.6,7.5C687.7,675.2,663.6,687.5,650.8,706.1z M723.1,1012.7c-14.1,0-25.5-11.6-25.5-25.8
	c0-14.2,11.4-25.8,25.5-25.8s25.5,11.6,25.5,25.8C748.6,1001.1,737.2,1012.7,723.1,1012.7z M1159.8,430.6c0,0,1.7,0.5-0.2,0.2
	L1159.8,430.6z M1052.7,505.2c0,0,5.3-2.8,10.3-13.9c0,0,37.2-43.8,37.7-64.5l3.9-5.5h4.8c0,0,44.7,12.5,48.8,13.3
	c0.5,0.2,0.9-2,1.2-1.9c-1.6,1.6-7,6.4-7,9.2c0,0-38.4,22-42.2,54.4c0,0-27.3,10.6-27.3,37.5l-21.9,11.1c0,0-13.3-16.1-14.8-14.8
	L1052.7,505.2z M834.2,512.2l19.4-7.8c6.2-3,7-9.1,7-9.1l7-3.6c6.6,2,26.4-9.1,26.4-9.1c7.8-10.3,19.5-10,19.5-10h8l31.2,30.8
	c2,4.1,10.3,9.4,10.3,9.4c7,12.3,19.8,24.7,21.6,24.7s7.5,5,7.5,5c6.2,13.6,19.4,22.5,19.4,22.5c-7.5-1.2-31.9,2-31.9,2
	c-11.6-7-69.1-5-69.1-5c-19.4,1.7-34.4-16.6-34.4-16.6c-10.5-12-45.5-25.6-45.5-25.6L834.2,512.2z M722.3,208
	c-3.4,1.7-8-0.5-10.2-4.8s-1.2-9.4,2.2-11.1s8,0.5,10.2,4.8S725.8,206.2,722.3,208z M726.6,390l13.6,15.3c6.6,9.1,5.3,33.6,5.3,33.6
	c-1.7,5.8,3.7,45.5,3.7,45.5l-3-2l-3-21.1c-0.5-18.3-14.5-18.6-14.5-18.6C729.4,438.4,726.6,390,726.6,390z M753.9,661.4
	c-4.4,5.6,5.9,26.4,5.9,26.4l-2,42.3c-2.5-4.1-2-39.4-2-39.4c-4.5-7.5-7.5-25.9-7.5-25.9l2.5-7.5l-8-5.9l-3.4,2.5l-4.1-5.5l2.5-6.4
	l-6.4-8.4c0,0-4.1,2.5,0-1.7c3.9-4.2,10.5,8.3,10.5,8.3c28-38.4,82.7-37.8,82.7-37.8c-63.8,10.9-82.7,46.9-82.7,46.9
	c5.5-3,12,6.4,12,6.4c23.4-37.8,79.2-42.3,79.2-42.3c8.4-11.4,40.8-5.9,40.8-5.9c34.8,1.6,66.7,45.8,66.7,45.8l-29.8-25.5
	c-48.3-31.4-72.8-8.9-72.8-8.9C782.8,618.1,753.9,661.4,753.9,661.4z M1023.1,788.3c0,0-22.5,15.2-24.2,25.2L965.3,792
	c0,0-13.1-7.3-17.8-2c0,0-7.8-4.2-10.5-3.1c0,0-15.2-38.9-50.5-66.1l-25.8-21.6c0,0-2.7-6.9-11.6-9.4c0,0,4.2-4.2-1.6-8.9l-6.9-11.6
	c0,0,6.9,5.3,14.2,4.2c0,0-13.3-10-12-10.5c0,0,0.5-0.2,1.2-0.5c2.3-0.9,7.5-2.2,13,0.5c0,0,24.2,12,50.9-0.8c0,0,11.1-5,16.9-0.8
	c0,0,11.1,4.4,20.5-1.7c0,0,41.4,46.4,60.3,49.5l20.5,7.8c0,0,2.7,29.4,4.7,42.5C1030.9,759.4,1023.6,784.1,1023.1,788.3z
	 M1152.5,902c0,0,16.9-23.4,0.9-39.8l-24.8-10c0,0-12-13-29.8-3c0,0-28,5.5-35.9,3c0,0-12-6.4-24.8,10.9c0,0-8.4,10-2.5,14.4
	c0,0,3.4,16.4-0.9,23c0,0-7,5.9-8.4,20.5c0,0-0.5-19.4,5.5-21.4c0,0,0.9-15.9-2.8-23.4c0,0-5.2-13.9,19.2-29.4c0,0,10.9-2,18,0
	c0,0,21.4,0,31.9-5c0,0,20.9-8,30.5,4.5c0,0,28.4,8,33.9,20C1161.9,866.3,1171.4,894.1,1152.5,902z M1200.3,696.9
	C1214.2,764.1,1173,808,1173,808l-6.4,12.5l4.1,31.9l-8.4-31.9l6.4-13c40.3-52.8,25.9-112.2,25.9-112.2
	c57.8-58.3,21.4-103.6,21.4-103.6c48.3,34.8-10,95.6-10,95.6c3.6,0.6,15.9-8.4,15.9-8.4c-0.6,4.7-9.2,9.4-14.8,12
	c-2.7,1.2-4.7,2-4.7,2c45.3,10,75.3-7.5,75.3-7.5C1257.7,705.8,1200.3,696.9,1200.3,696.9z M1357,535.3l-2.7,34.5c0,0,0,9.8-3,12
	c0,0-0.5,19.1-15.6,22.8c0,0-32.8,12-46.9-4.7l-31.4-36.3c0,0-8.4-13-8.4-28.4c0,0-10.5-5.9-10.5-12.5c0,0-7-10.5-4.5-17.5
	c0,0-7-15-3-18.9c4.1-4.1-0.9-9.5-1.2-14.4c0,0-1.7-8.9,5.2-16.9c0,0,0.9,6.4,3.4-2.5c0,0,2.5-20.5,13-23.9c0,0-3.4,5,2.5,3.4
	c0,0,3.4-9.1,6.7-9.4c0,0,5.5-0.8,7.2,0.2c1.7,0.9-2.7-6.4,14.7-5.9c0,0,15.2-5.6,21.6-4.7c0,0-5.6,4.7-1.7,5.5l8.1-3.3l-2.2,3.3
	c0,0,7.3-1.9,14.7,0l-5.6,3.3c0,0,11.7-0.3,17.7,2.2l-5.2,3c0,0,15.2,5.2,18.1,9.5c3,4.4,0,1.7,0,1.7l-2.2,0.8c0,0,4.7,5.3,7.8,3.1
	l-3.4,6.9l6.9,8.3h-4.2l7.3,11.2h-2.5c0,0-2.3,9.7,2.5,9.7h-4.1c0,0-1.1,9.7,4.1,9.7h-5.6l5.6,16.4c0,0,1.2,6.1-3,9.5
	C1357.5,513,1363.4,528.9,1357,535.3z M324.8,325.8l5,0.8h-5.2C324.7,325,324.8,326.1,324.8,325.8z M892.3,8.3L892.3,8.3
	c22.8,5.2,43.3,14.1,59.5,22.8c-8.4-2.7-18.1-5.5-20.5-5.3c0,0,19.1,10,25.2,15.2c0,0-23.8-2.7-21.6,1.7c0,0,20,6.4,29.8,14.2
	l9.1,18.6c0,0,6.4-8.3,6.9-12c0,0,29.4,20.8,31.6,23.3l-21.4-30c22.7,18.4,38.4,33.9,49.5,46.9v6.1c0.9,21.2-81.3-27.2-81.3-27.2
	C887.8,37.3,892.3,8.3,892.3,8.3z"/>
</svg>
