<?xml version="1.0" encoding="utf-8"?>
<!-- Generator: Adobe Illustrator 18.0.0, SVG Export Plug-In . SVG Version: 6.00 Build 0)  -->
<!DOCTYPE svg PUBLIC "-//W3C//DTD SVG 1.1//EN" "http://www.w3.org/Graphics/SVG/1.1/DTD/svg11.dtd">
<svg version="1.1" id="Слой_1" xmlns="http://www.w3.org/2000/svg" xmlns:xlink="http://www.w3.org/1999/xlink" x="0px" y="0px"
	 viewBox="5 0 757 1024" enable-background="new 5 0 757 1024" xml:space="preserve">
<path fill="#000000"      d="
	M756.7,1000.6c-5.8-48.8-52.1-43-52.1-43c2.7-8.5-13.4-7.6-13.4-7.6c-6.4-27.7-27.1-85.3-27.1-85.3s5.5-5.8,11.9-9.8
	c0.3-0.2,0.6-0.4,0.8-0.5c5.1-3.7,0.7-6.8,0.7-6.8c-12.5-14-16.5-38.4-16.5-38.4c-0.7-3.6-1.5-7.4-2.4-11c4.2,1.8,7.3,0.5,7.3,0.5
	c7.9,6.5,14.3-0.7,14.3-0.7c7.6,4,16.8-10.4,16.8-10.4c3.4-11.9-8.5-10.1-8.5-10.1c-0.3-2.1-2.4-4-2.4-4c11.3-8.5,7.3-32,7.3-32
	c6.7-5.8-2.1-14.9-2.1-14.9c3.4-4.6,10.7-26.2,10.7-26.2c6.4-29.6-55.8-28-55.8-28c-11.6,0-16.8-4.3-16.8-4.3
	c53-21,47.2-61.3,47.2-61.3c0-8.2,3-25.9,3-25.9c5.8,7,25.6,7.3,25.6,7.3c32.9-2.7,32.9-34.4,32.9-34.4
	c-2.4-55.2-38.8-61.4-38.8-61.4c-42.1-7.9-46.5,44-46.5,44c-18.3-18.9-50.9-12.2-50.9-12.2c2.4-2.7,3.4-14,3.4-14
	c3-44.8-17.1-45.1-17.1-45.1c-49.1-3-57,53.9-57,53.9c-2.7,43,23.5,41.7,23.5,41.7l-5.2,11.3c-26.5,38.7,6,75.4,6,75.4
	c8.1,6.9,8.1,12.4,8.1,12.4c-56.7-2.1-59.7-68-59.7-68c6.7-5.8,3.4-15.8,3.4-15.8c13.1-19.2,11.3-43.3,11.3-43.3
	c-0.9-4.3-1.5-14.9-1.5-14.9c0.9-21.3-13.1-11.6-13.1-11.6l-0.4-2.6c1.8-8.8-2.9-11.7-2.9-11.7c-1.8-1.5-2.7-6.4-2.7-6.4
	c3-1.2-1.8-88.4-1.8-88.4c0.9-37.2-11-69.2-11-69.2c0-3.7-11.3-41.1-11.3-41.1l-18.9-75.6c-6.4-17.7-16.2-18.9-16.2-18.9
	c-43.3-12.8-68-42.4-68-42.4l-5.5-9.5c-0.3-3.7-4.3-6.7-4.3-6.7c1.5-18.9,5.5-22.6,5.5-22.6c8.8,3.7,10.3-7.7,10.3-7.7l3.1-8.1
	c11.4-21.1,1.9-20,1.9-20l2.3-11.1c5.1-27.1-11.2-33.5-11.2-33.5C369.7,17.6,352,12.7,352,12.7c-26.2-17.1-49.4,4-49.4,4
	c-19.8,21.9-15.5,52.1-15.5,52.1c-6.7-4.3-0.9,25.3-0.9,25.3c0,9.8,4,11.6,4,11.6l2.4,11.6c0.9,8.2,0.9,13.4,0.9,13.4
	c-3.4,0-19.5,13.1-19.5,13.1c-8.2,2.4-18.9,8.5-18.9,8.5c-3,2.1-28-1.8-28-1.8c-12.8-3-14.9-0.6-14.9-0.6c-7.3-5.8-16.5,7-16.5,7
	c-7.6-0.3-15.2,7.9-15.2,7.9c-3.4,0-11,3.4-11,3.4c-6.1-4-18.3,2.4-18.3,2.4c-3.7-3.7-10.4-1.8-10.4-1.8c-2.7-2.7-14-5.5-14-5.5
	c-12.8-5.5-25.6-27.4-25.6-27.4c-4-8.5-11-12.2-11-12.2l-1.2-2.1c0-10.4-8.2-23.5-8.2-23.5c-0.3-16.2-7.3-10.4-7.3-10.4L61.6,72.1
	l-8.8-10.4c-1.5-4.9-10.7-10.4-10.7-10.4c-3.7-5.5-15.5-9.4-15.5-9.4c-8.2,4.3,6.4,15.5,6.4,15.5l4,4.9l10.7,13.7
	c-3.4,4.9-10.1-4-10.1-4C36.3,70,29,65.7,29,65.7l-8.2-3c-4.6-2.7-7.9-1.5-7.9-1.5c-5.5,6.7,10.1,14.5,10.1,14.5l10.1,9
	c0.9,4.6-1.8,7.3-1.8,7.3c-1.5-3.4-8.2-7.6-8.2-7.6c-11-3.4-8.5,9.4-8.5,9.4c4,11.3,9.4,6.7,9.4,6.7c3.7,2.4,1.5,6.1,1.5,6.1
	l-8.4-4.3c-9.3-0.6-5,7.6-5,7.6C18.3,123,25,119,25,119l6.1,6.1C36,136.4,49.4,141,49.4,141c-6.1,5.8-7.6,18.3-7.6,18.3
	c-2.7,17.4,39.9,63.4,39.9,63.4c14.6,22.5,57.6,25.9,57.6,25.9c42.1,12.2,59.4,25.9,59.4,25.9c7.6,11,10.7,55.5,10.7,55.5
	c0.3,23.2-11.6,78.9-11.6,78.9C170.7,507.6,174,514,174,514l-4.2,23.8c2.1-2.4,30.4,6.3,30.4,6.3v43l-1.7,109.7l-3.6,48.8
	c-6.7,32.6-6.6,51.5-6.6,51.5c1.5,29.9-5.1,81.4-5.1,81.4c-6.1,18.3-3.9,65.5-3.9,65.5c-2.7-1.2-11,32.9-11,32.9
	c-2.4,4.3-16.8,9.4-16.8,9.4c-24.4-2.1-25,14.6-25,14.6c-3-0.6-4.6,6.4-4.6,6.4c-0.9,6.1,13.4,11.6,13.4,11.6c76.2,4,68.3-4,68.3-4
	c2.7-3,7.6-3,7.6-3l13.1,1.5l19.1-3.3v-12.8l1.8-2.7c5.8-5.5,4.1-36,4.1-36c12.5-29.6,21.7-129.8,21.7-129.8l10.7-96.9
	c11.3-64.3,29.3-130.1,29.3-130.1c3.4,4.9,9.5,76.8,9.5,76.8c-0.9,31.4,8.8,92.6,8.8,92.6c3,27.4,2.7,120.1,2.7,120.1
	c-2.7,25,4,59.4,4,59.4l-1.5,2.7l1.2,21c0.6,9.8,3.8,13.7,3.8,13.7c3.2,3.7,2.3,17.1,2.3,17.1c-3,0.3-2.1,5.5-2.1,5.5
	c8.8,8.5,57.3,1.5,57.3,1.5c13.7-3.4,7-7.6,7-7.6c1.2-7.9-9.8-23.5-9.8-23.5c1.8,0-0.3-20.7-0.3-20.7c0.3-9.4,0-13.7,0-13.7
	c2.7-5.5,10.1-98.1,10.1-98.1c6.1-52.7,1.8-118.5,1.8-118.5c1.2-3.7-0.9-23.5-0.9-23.5c-0.9-9.1,1.8-39,1.8-39
	c7.2-50.3,12.5-105.1,12.5-105.1c2.4,0.6,9.1-0.3,9.1-0.3c2.4-0.9,2.4-26.8,2.4-26.8c10.1-15.8-5.5-104.5-5.5-104.5
	C419.3,411,419,372,419,372c0.6-18,5.2-14,5.2-14c0,2.1,12.2,36.9,12.2,36.9c-0.6,7.3,7,37.8,7,37.8c-1.8,9.8,6.7,45.7,6.7,45.7
	c-2.4,5.5-1.5,14.3-1.5,14.3c-3,4.9-1.8,13.1-1.8,13.1l0.3,9.4c-1.8,10.4,7.3,5.5,7.3,5.5c-2.4,11.6,18.9,58.2,18.9,58.2
	c-5.8,9.4,4.3,15.2,4.3,15.2l6.7,33.5c5.5,31.4,39,51.5,39,51.5c17.7,10.7,22.2,21.6,22.2,21.6l-12.8,42.7
	c-16.8,45.4-5.2,77.4-5.2,77.4c6.7,17.7,2.1,41.7,2.1,41.7c6.7,6.7,29.2,13.1,29.2,13.1l31.2,78c-7.6,0.3-9.4,5.2-9.4,5.2
	c-60.3-14.3-54.2,37.5-54.2,37.5c-4.3,8.8,16.5,14.6,16.5,14.6c30.5,9.8,98.4-2.7,98.4-2.7c3-2.1,0.9-8.5,0.9-8.5
	c4.3-16.5-7.9-28.9-7.9-28.9l1.4-8.4c0.9-13.4-10.8-8.7-10.8-8.7c-6.7-13.1-20.1-71.6-20.1-71.6l5.5-2.4l0.6-6.1l4.6,11.6
	c4.9,0.9,14.6-1.5,14.6-1.5c17.1,24.1,28.6,72.2,28.6,72.2c-11.9,0.6-3,17.7-3,17.7c-4.9,8.8-2.3,27.9-2.3,27.9c-2.2,0,0,7.1,0,7.1
	c3.2,5.5,20.6,7,20.6,7c60.3,6.1,78.7-5.5,78.7-5.5C757.7,1007.6,756.7,1000.6,756.7,1000.6z M634.2,734.9
	c-9.1-23.8-1.2-28.6-1.2-28.6l34.1,2.4c5.5,0,1.2,10.4,1.2,10.4c-12.5,2.4-6.4,11.3-6.4,11.3c-6.3,4-14.5,15.4-19,22
	c-2.5-4.4-4.5-7.1-4.5-7.1L634.2,734.9z"/>
</svg>
