<?xml version="1.0"?><svg width="640" height="480" xmlns="http://www.w3.org/2000/svg" xmlns:xlink="http://www.w3.org/1999/xlink">
 <title>red backwards Floral Design</title>
 <defs>
  <filter id="filter5500">
   <feGaussianBlur stdDeviation="0.028007" id="feGaussianBlur5502"/>
  </filter>
  <pattern xlink:href="#pattern5504" id="pattern5523" patternTransform="translate(-84.1377, 510.395)"/>
  <pattern xlink:href="#pattern5504" id="pattern5519" patternTransform="matrix(0.880062, 0, 0, 0.880062, -58.8481, 577.678)"/>
  <pattern xlink:href="#pattern5504" id="pattern5517" patternTransform="matrix(0.880062, 0, 0, 0.880062, -58.8481, 577.678)"/>
  <pattern xlink:href="#pattern5504" id="pattern5515" patternTransform="matrix(0.880062, 0, 0, 0.880062, -58.8481, 577.678)"/>
  <pattern xlink:href="#pattern5504" id="pattern5513" patternTransform="matrix(0.880062, 0, 0, 0.880062, -58.8481, 577.678)"/>
  <pattern xlink:href="#pattern5504" id="pattern5511" patternTransform="matrix(0.880062, 0, 0, 0.880062, -58.8481, 577.678)"/>
  <pattern xlink:href="#pattern5490" id="pattern5507" patternTransform="translate(0.0672191, 0.0671756)"/>
  <pattern xlink:href="#pattern5478" id="pattern5490" patternTransform="translate(-79.9494, 517.532)"/>
  <pattern xlink:href="#pattern5310" id="pattern5322" patternTransform="translate(-212.763, 474.817)"/>
  <pattern xlink:href="#pattern5263" id="pattern5276" patternTransform="matrix(0.893653, 0, 0, 0.815661, -53.4473, 517.427)"/>
  <pattern xlink:href="#pattern5254" id="pattern5263" patternTransform="matrix(0.893653, 0, 0, 0.815661, -50.3653, 517.419)"/>
  <pattern xlink:href="#pattern5244" id="pattern5254" patternTransform="matrix(0.692326, 0, 0, 0.69244, 3.54248e-07, -1.90234e-05)"/>
  <pattern xlink:href="#pattern5233" id="pattern5247" patternTransform="matrix(0.73209, 0, 0, 0.714954, -6.45752e-07, 1.75391e-05)"/>
  <pattern patternUnits="userSpaceOnUse" width="3.551382" height="3.635903" patternTransform="matrix(0.73209, 0, 0, 0.714954, -50.3262, 517.536)" id="pattern5233">
   <path id="path5214" d="m2.19867,0.29212a0.34491,0.57741 0 1 1-0.68982,0.90539a0.34491,0.57741 0 1 10.68982,-0.90539z" fill="#800000"/>
   <path d="m1.26017,2.07855a0.44533,0.67647 0 1 1-0.89066,-0.61168a0.44533,0.67647 0 1 10.89066,0.61168z" id="path5216" fill="#800000"/>
   <path id="path5218" d="m2.09607,3.11798a0.12093,0.2397 0 1 1-0.24187,-1.23446a0.12093,0.2397 0 1 10.24187,1.23446z" fill="#800000"/>
   <path id="path5225" d="m0.90522,0.59989a0.43971,0.62202 0 1 1-0.87942,0.04494a0.43971,0.62202 0 1 10.87942,-0.04494z" fill="#800000"/>
   <path d="m3.1296,1.48597a0.08931,0.2397 0 1 1-0.17862,-1.23446a0.08931,0.2397 0 1 10.17862,1.23446z" id="path5227" fill="#800000"/>
   <path d="m3.51855,2.7191a0.40631,0.63562 0 1 1-0.81262,0.37695a0.40631,0.63562 0 1 10.81262,-0.37695z" id="path5229" fill="#800000"/>
   <path d="m0.48147,3.62721" id="path5231" fill="#800000"/>
  </pattern>
  <pattern patternUnits="userSpaceOnUse" width="2.599932" height="2.599502" patternTransform="matrix(0.692326, 0, 0, 0.69244, -50.3262, 517.536)" id="pattern5244">
   <rect id="rect5242" y="0" x="0" height="2.599502" width="2.599932" fill="url(#pattern5247)"/>
  </pattern>
  <pattern patternUnits="userSpaceOnUse" width="1.8" height="1.8" patternTransform="translate(-50.3262, 517.536)" id="pattern5251">
   <rect id="rect5249" y="0" x="0" height="1.8" width="1.8" fill="url(#pattern5254)"/>
  </pattern>
  <pattern patternUnits="userSpaceOnUse" width="2.341234" height="2.175213" patternTransform="translate(-50.4178, 517.402)" id="pattern5310">
   <path d="m0.64728,0.54305a0.28042,0.33013 0 1 1-0.56084,-0.30654a0.28042,0.33013 0 1 10.56084,0.30654z" id="path5266" fill="#333333"/>
   <path id="path5268" d="m0.80045,1.02593a0.30273,0.35473 0 1 1-0.60546,0.28893a0.30273,0.35473 0 1 10.60546,-0.28893z" fill="#333333"/>
   <path d="m1.50434,0.31465a0.31302,0.4232 0 1 1-0.62603,0.43628a0.31302,0.4232 0 1 10.62603,-0.43628z" id="path5270" fill="#333333"/>
   <path id="path5272" d="m0.41925,2.17504a0.00009,0.00012 0 1 1-0.00018,-0.55859a0.00009,0.00012 0 1 10.00018,0.55859z" fill="#333333"/>
   <path id="path5274" d="m1.53937,1.83036a0.2134,0.28644 0 1 1-0.42682,-0.56542a0.2134,0.28644 0 1 10.42682,0.56542z" fill="#333333"/>
   <path id="path5278" d="m2.2184,0.54938a0.22871,0.32438 0 1 1-0.45741,-0.35792a0.22871,0.32438 0 1 10.45741,0.35792z" fill="#333333"/>
   <path d="m2.30195,1.87832a0.25125,0.36042 0 1 1-0.5025,-0.23021a0.25125,0.36042 0 1 10.5025,0.23021z" id="path5280" fill="#333333"/>
   <path d="m2.03157,0.80542a0.01462,0.01981 0 1 1-0.02924,0.46605a0.01462,0.01981 0 1 10.02924,-0.46605z" id="path5282" fill="#333333"/>
  </pattern>
  <pattern patternUnits="userSpaceOnUse" width="4" height="4" patternTransform="translate(-50.3935, 512.782)" id="pattern5342">
   <g transform="matrix(1.71954, 0.0532923, -0.0494765, 1.85216, 117.386, -950.24)" id="g5324" fill="#800000">
    <path id="path5326" d="m-52.793732,515.085022c-0.130779,0.182373 -0.362328,0.261536 -0.517208,0.17688c-0.154881,-0.084656 -0.174412,-0.301086 -0.043629,-0.483398c0.130779,-0.182312 0.362328,-0.261536 0.517208,-0.17688c0.154881,0.084656 0.174412,0.301086 0.043629,0.483398z" fill="#800000"/>
    <path d="m-52.64064,515.567932c0.12384,0.195923 0.088699,0.419373 -0.078499,0.499207c-0.167191,0.079773 -0.403122,-0.014343 -0.52697,-0.210266c-0.12384,-0.195923 -0.088711,-0.419434 0.078487,-0.499207c0.167202,-0.079773 0.403133,0.014343 0.526981,0.210266z" id="path5328" fill="#800000"/>
    <path id="path5330" d="m-51.93766,514.857666c0.162071,0.233704 0.153309,0.520874 -0.019569,0.641357c-0.172882,0.120483 -0.444389,0.028625 -0.606472,-0.205078c-0.162067,-0.233765 -0.153309,-0.520874 0.019573,-0.641357c0.172878,-0.120483 0.444389,-0.028625 0.606468,0.205078z" fill="#800000"/>
    <path d="m-53.021759,516.717346c-0.212502,0.000061 -0.384811,-0.124878 -0.384861,-0.279175c-0.00005,-0.154236 0.17218,-0.279358 0.384682,-0.279419c0.212509,-0.000061 0.384808,0.124939 0.384857,0.279175c0.00005,0.154297 -0.172169,0.279358 -0.384678,0.279419z" id="path5332" fill="#800000"/>
    <path d="m-51.901642,516.373352c-0.211578,0.158203 -0.478619,0.159912 -0.596489,0.003723c-0.117859,-0.156128 -0.041901,-0.41095 0.16967,-0.569153c0.211582,-0.158203 0.47863,-0.159851 0.596489,-0.003723c0.11787,0.156128 0.041901,0.41095 -0.16967,0.569153z" id="path5334" fill="#800000"/>
    <path d="m-51.222599,515.092407c-0.12674,0.179138 -0.331871,0.244263 -0.458191,0.145386c-0.12632,-0.098816 -0.125969,-0.324158 0.000778,-0.503357c0.126751,-0.179138 0.331882,-0.244263 0.458202,-0.145386c0.126308,0.098816 0.125957,0.324158 -0.00079,0.503357z" id="path5336" fill="#800000"/>
    <path id="path5338" d="m-51.13905,516.421326c-0.080601,0.199036 -0.258419,0.308838 -0.39719,0.2453c-0.13876,-0.063599 -0.185909,-0.276489 -0.105301,-0.475525c0.080601,-0.199036 0.258419,-0.308899 0.39719,-0.2453c0.13876,0.063538 0.185902,0.276428 0.105301,0.475525z" fill="#800000"/>
    <path id="path5340" d="m-51.410431,515.347534c0.173542,0.010925 0.307682,0.124146 0.299603,0.252808c-0.008072,0.128723 -0.1553,0.224182 -0.328842,0.213196c-0.17355,-0.010925 -0.30769,-0.124084 -0.29961,-0.252808c0.008072,-0.128723 0.1553,-0.224182 0.32885,-0.213196z" fill="#800000"/>
   </g>
  </pattern>
  <pattern patternUnits="userSpaceOnUse" width="4.531986" height="4.508552" patternTransform="translate(-50.6334, 507.297)" id="pattern5426">
   <g id="g5395" transform="translate(50.6334, -507.297)">
    <path d="m-49.843021,510.121979c-0.436249,0.000122 -0.78997,-0.234528 -0.79007,-0.52417c-0.000111,-0.289642 0.353451,-0.524536 0.7897,-0.524658c0.43626,-0.000122 0.789982,0.234558 0.790081,0.5242c0.000099,0.289642 -0.353451,0.524506 -0.789711,0.524628z" id="path5363" fill="#800000"/>
    <path d="m-46.80748,508.778748c-0.454479,0.316162 -0.898411,0.296814 -0.99157,-0.043213c-0.093159,-0.340057 0.199738,-0.871979 0.654221,-1.188141c0.454479,-0.316162 0.898399,-0.296814 0.991558,0.043243c0.09317,0.340027 -0.19973,0.871948 -0.654209,1.18811z" id="path5367" fill="#800000"/>
    <path id="path5371" d="m-48.32003,508.944275c0.32663,0.029175 0.579079,0.331116 0.563881,0.674438c-0.01519,0.343292 -0.292282,0.5979 -0.6189,0.568726c-0.32663,-0.029205 -0.579079,-0.331146 -0.563889,-0.674438c0.015198,-0.343323 0.29229,-0.597931 0.618908,-0.568726z" fill="#800000"/>
    <path id="path5383" d="m-46.890991,510.074982c-0.436249,0.000122 -0.789978,-0.234528 -0.790077,-0.52417c-0.000103,-0.289642 0.353458,-0.524536 0.789707,-0.524658c0.436253,-0.000122 0.78997,0.234558 0.790081,0.5242c0.000099,0.289642 -0.353458,0.524506 -0.789711,0.524628z" fill="#800000"/>
    <path d="m-47.843182,508.085724c0.000122,0.436249 -0.234558,0.789978 -0.524189,0.79007c-0.289639,0.000092 -0.524509,-0.353455 -0.524639,-0.789703c-0.000122,-0.436249 0.234558,-0.789978 0.524189,-0.79007c0.289642,-0.000122 0.524521,0.353455 0.524639,0.789703z" id="path5385" fill="#800000"/>
    <path id="path5387" d="m-47.819679,511.014496c0.000118,0.436279 -0.234562,0.789978 -0.524189,0.7901c-0.289642,0.000092 -0.524521,-0.353455 -0.524643,-0.789703c-0.000118,-0.436279 0.234562,-0.789978 0.524193,-0.7901c0.289639,-0.000092 0.524509,0.353455 0.524639,0.789703z" fill="#800000"/>
    <path id="path5389" d="m-49.58342,511.578766c-0.454479,0.316162 -0.898411,0.296814 -0.99157,-0.043243c-0.093163,-0.340057 0.199738,-0.871979 0.654221,-1.188141c0.454479,-0.316162 0.898399,-0.296783 0.991558,0.043243c0.09317,0.340057 -0.19973,0.871979 -0.654209,1.188141z" fill="#800000"/>
    <path d="m-49.136238,508.016449c0.316158,0.454498 0.296806,0.898407 -0.043232,0.991577c-0.34005,0.09314 -0.871971,-0.199738 -1.188129,-0.654236c-0.316162,-0.454468 -0.29681,-0.898407 0.043228,-0.991547c0.340042,-0.09317 0.871971,0.199738 1.188133,0.654205z" id="path5391" fill="#800000"/>
    <path id="path5393" d="m-46.383251,510.74646c0.316162,0.454468 0.29681,0.898407 -0.043228,0.991547c-0.34005,0.09317 -0.871971,-0.199738 -1.188129,-0.654205c-0.316162,-0.454498 -0.29681,-0.898407 0.043228,-0.991577c0.34005,-0.09314 0.871971,0.199738 1.188129,0.654236z" fill="#800000"/>
   </g>
  </pattern>
  <pattern patternUnits="userSpaceOnUse" width="5.599999" height="5.602892" patternTransform="translate(-82.2386, 518.899)" id="pattern5478">
   <path d="m1.54846,1.40146a0.67073,0.8499 0 1 1-1.34148,-0.78918a0.67073,0.8499 0 1 11.34148,0.78918z" id="path5442" fill="#800000"/>
   <path id="path5444" d="m1.98887,2.64626a0.7241,0.91323 0 1 1-1.4482,0.74386a0.7241,0.91323 0 1 11.4482,-0.74386z" fill="#800000"/>
   <path d="m3.59741,0.66357a0.7487,1.08952 0 1 1-1.49741,1.12318a0.7487,1.08952 0 1 11.49741,-1.12318z" id="path5446" fill="#740000"/>
   <path id="path5448" d="m1.00441,5.60267a0.00022,0.00031 0 1 1-0.00044,-1.43807a0.00022,0.00031 0 1 10.00044,1.43807z" fill="#7b0000"/>
   <path id="path5450" d="m3.68145,4.71738a0.51044,0.73744 0 1 1-1.02089,-1.45565a0.51044,0.73744 0 1 11.02089,1.45565z" fill="#800000"/>
   <path id="path5452" d="m5.30782,1.41746a0.54704,0.83512 0 1 1-1.09408,-0.92147a0.54704,0.83512 0 1 11.09408,0.92147z" fill="#800000"/>
   <path d="m5.50688,4.83946a0.60096,0.92787 0 1 1-1.20192,-0.59265a0.60096,0.92787 0 1 11.20192,0.59265z" id="path5454" fill="#800000"/>
   <path d="m4.86175,2.07673a0.03497,0.05101 0 1 1-0.06993,1.19983a0.03497,0.05101 0 1 10.06993,-1.19983z" id="path5456" fill="#800000"/>
  </pattern>
  <pattern patternUnits="userSpaceOnUse" width="5.734434" height="5.737327" patternTransform="translate(-80.0166, 517.465)" id="pattern5504">
   <rect id="rect5488" y="0.067217" x="0.067217" height="5.602892" width="5.599999" filter="url(#filter5500)" fill="url(#pattern5507)"/>
  </pattern>
 </defs>
 <metadata id="metadata2827">image/svg+xml</metadata>
 <g>
  <title>Layer 1</title>
  <g id="layer1">
   <path d="m619.421143,441.382996l-6.00354,4.746002c-38.811035,-48.988007 -88.533813,-89.372986 -144.189453,-118.444c-55.658691,-29.067993 -117.413239,-46.906006 -180.233765,-50.894989c0,0 0,0 0,0c-21.662567,-1.378021 -43.496048,-1.221008 -65.356644,-2.27002c-21.704742,-1.03299 -43.574463,-3.324982 -64.537109,-9.505981c-21.044067,-6.200012 -41.20726,-16.550003 -56.786942,-32.040009c-15.588737,-15.496002 -26.187683,-36.479004 -26.890633,-58.414993c-0.598305,-19.057999 6.67115,-38.451004 20.511139,-51.612007c0,0 0,0 0,0c6.925522,-6.577995 15.393646,-11.552002 24.567665,-14.253998c9.175095,-2.701004 19.033905,-3.098999 28.35379,-0.995003c9.318848,2.105003 18.059494,6.729004 24.901535,13.342003c0,0 0,0 0,0c6.843063,6.613998 11.740341,15.206993 13.774658,24.459999c0,0 0,0 0,0c2.033279,9.253006 1.165482,19.126007 -2.585358,27.809006c-3.752914,8.681992 -10.396896,16.11499 -18.681961,20.694c-6.674149,3.687988 -14.363922,5.516998 -21.975266,5.235001c-7.612366,-0.282013 -15.126144,-2.673004 -21.475517,-6.824005c6.384529,4.097992 13.903358,6.416 21.481529,6.634003c7.578156,0.216003 15.201584,-1.667999 21.781174,-5.376999c8.170486,-4.604004 14.672638,-12.016006 18.297836,-20.603012c3.627136,-8.588989 4.391434,-18.319 2.319901,-27.381989c-2.071518,-9.064011 -6.954681,-17.451004 -13.698196,-23.861008c0,0 0,0 0,0c-6.743561,-6.410995 -15.331299,-10.854996 -24.430954,-12.832001c-9.101624,-1.977997 -18.712143,-1.501999 -27.610634,1.198006c-8.900536,2.699997 -17.095116,7.613998 -23.764236,14.053001c-13.333145,12.860001 -20.204399,31.802994 -19.482376,50.235001c0.818542,21.246002 11.359161,41.546997 26.602997,56.496002c15.262939,14.965988 35.067131,24.875992 55.739143,30.809998c20.608673,5.910004 42.196808,7.968994 63.761795,8.833008c21.721817,0.860992 43.564377,0.520996 65.449081,1.72699c0,0 0,0 0,0c63.513397,3.506989 126.133881,20.998993 182.768921,49.980011c56.637146,28.97699 107.449829,69.524994 147.391418,119.057983l0,0l0,0l0,0z" id="path2832" stroke="#000000" fill-rule="evenodd" fill="#bf0000"/>
   <path d="m176.636124,268.553864c-7.349121,-2.18692 -14.84993,-3.056366 -22.086227,-2.74411c-5.254288,-0.753998 -10.598434,-0.884338 -15.875702,-0.361694c-12.354668,1.220215 -24.369034,6.02182 -34.142838,13.650726c-9.775879,7.626373 -17.33036,18.095215 -21.46666,29.756439c0,0 0,0 0,0.000031c-4.13932,11.660095 -4.868027,24.534302 -2.066071,36.59137c2.687431,11.575409 8.627724,22.422394 16.978752,30.925049c8.348633,8.50412 19.123734,14.677429 30.724251,17.559265c11.599289,2.884338 24.043472,2.480286 35.422852,-1.188019c11.37973,-3.665405 21.711594,-10.602417 29.358612,-19.757294c0,0 0,0 0,0c8.639923,-10.363159 13.874954,-23.795166 13.206848,-37.156403c-0.325134,-6.685883 -2.084656,-13.319183 -5.262482,-19.196075c-1.435974,-2.656921 -3.163635,-5.163025 -5.141663,-7.44986c-2.339264,-2.818695 -5.059326,-5.330719 -8.094009,-7.4104c-5.537476,-3.796356 -12.142563,-6.160614 -18.920197,-6.561462c-6.775528,-0.402191 -13.734756,1.169312 -19.64476,4.644989c0,0 0,0.000031 0,0.000031c-5.909286,3.473969 -10.753525,8.866028 -13.423111,15.255768c-2.66954,6.389191 -3.124054,13.757446 -1.045273,20.472656c1.417358,4.573242 3.984222,8.812012 7.429123,12.22348c-3.522064,-3.331146 -6.206177,-7.528046 -7.747055,-12.118835c-2.258911,-6.742737 -1.993942,-14.250763 0.593414,-20.87674c2.589096,-6.623322 7.434967,-12.311523 13.498169,-16.070435c0,-0.000031 0,-0.000031 0,-0.000031c6.062759,-3.756287 13.273224,-5.584656 20.408844,-5.329468c7.133987,0.256653 14.14888,2.561493 20.116455,6.448303c5.965714,3.886871 10.871796,9.312042 14.266113,15.541901c3.393005,6.229065 5.285568,13.228424 5.652893,20.294373c0.721481,14.130768 -4.664291,28.219849 -13.69635,39.098602c-7.965378,9.606934 -18.716248,16.891785 -30.62796,20.781464c-11.912125,3.887573 -24.918015,4.365021 -37.108437,1.38562c-12.189507,-2.981537 -23.498528,-9.397247 -32.314606,-18.305298c-8.814171,-8.909454 -15.091843,-20.257843 -17.972008,-32.439026c0,0 0,-0.000031 0,-0.000031c-2.998314,-12.690125 -2.289825,-26.215637 2.029236,-38.544098c4.321762,-12.327454 12.226852,-23.379486 22.537689,-31.491943c0,0 0,0 0,0c10.312744,-8.110077 22.96347,-13.227325 36.060928,-14.575348c13.097794,-1.344788 26.553055,1.088593 38.351227,6.946503z" id="path2838" stroke="#000000" fill-rule="evenodd" fill="#bf0000"/>
   <path d="m554.951782,377.818451l-3.834351,4.644531c-26.081116,-21.475647 -45.586792,-50.631989 -55.425476,-82.765442c-9.833801,-32.134949 -9.947754,-67.074249 -0.369232,-99.198654c4.514587,-15.185226 11.281372,-29.91864 21.254425,-42.416855c9.9776,-12.509247 23.363281,-22.615479 38.776428,-27.389954c15.431641,-4.77668 32.872131,-3.749535 47.015076,4.138016c7.066589,3.954361 13.202515,9.573471 17.590393,16.366547c4.388062,6.795959 6.968567,14.750015 7.210999,22.829208c0.276611,9.395187 -2.681335,18.839447 -8.348267,26.342789c-5.671692,7.501892 -14.007874,12.948578 -23.189819,15.043564c0,0 0,0 0,0c-9.18457,2.090469 -19.097229,0.767273 -27.336182,-3.737747c0,0 -0.000061,0 -0.000061,0c-8.237732,-4.510315 -14.663208,-12.166931 -17.548401,-21.044373c-3.110657,-9.596832 -1.973267,-20.431122 3.034241,-29.157227c-4.909058,8.781448 -5.900391,19.58461 -2.711975,29.052353c2.955139,8.759766 9.399292,16.241272 17.538757,20.579041c0,0 0,0 0,0c8.140259,4.335876 17.877808,5.509506 26.804016,3.371399c8.926025,-2.138977 16.977966,-7.547836 22.382385,-14.868317c5.404724,-7.320862 8.150635,-16.499451 7.78125,-25.52861c0,0 0,0 0,0c-0.317261,-7.769913 -2.900146,-15.399429 -7.182556,-21.874115c-4.282776,-6.475677 -10.249023,-11.803207 -17.065002,-15.520081c-13.619202,-7.435715 -30.432434,-8.174667 -45.172119,-3.454514c-14.758362,4.724182 -27.535767,14.659637 -37.053772,26.831757c-9.523102,12.181824 -15.909424,26.593262 -20.174408,41.484329c0,0 0,0 0,0.000046c-9.005554,31.512466 -8.468201,65.622833 1.445068,96.713409c9.908997,31.091797 29.186127,59.143372 54.578583,79.558899c0,0 0,0 0,0z" id="path2844" stroke="#000000" fill-rule="evenodd" fill="#bf0000"/>
   <path d="m490.959381,225.051712c-0.974915,2.875473 -1.913727,5.778 -2.815369,8.706802c-5.117737,-32.884033 -5.51886,-66.468445 -1.197418,-99.430206c1.197357,-9.136139 2.729065,-18.142601 3.602173,-27.144646c0.858276,-8.927864 1.088593,-17.894379 -0.32312,-26.592384c-2.064819,-12.816681 -7.70462,-25.114979 -16.279694,-34.904469c0,0 -0.000061,0 -0.000061,-0.000031c-8.569824,-9.78891 -20.10379,-17.083248 -32.727234,-20.405479c-12.618195,-3.325439 -26.356079,-2.669119 -38.514099,2.085649c-12.155731,4.74835 -22.742981,13.623503 -29.293182,24.875959c-8.306091,14.235851 -9.919312,32.302753 -4.295105,47.847805c5.612213,15.551277 18.415802,28.500748 33.994965,34.415573c0,0.000061 0,0.000061 0,0.000061c9.905243,3.755295 20.981506,4.772858 31.197723,2.085052c10.203064,-2.681015 19.538483,-9.175034 24.876526,-18.207069c2.6763,-4.517502 4.367523,-9.629089 4.803131,-14.851089c0,0 0,0 0,-0.000053c0.436188,-5.220749 -0.38327,-10.562248 -2.464355,-15.373177c-2.079742,-4.810104 -5.427582,-9.098564 -9.663208,-12.208923c-4.233582,-3.110451 -9.36618,-5.045746 -14.619537,-5.402084c-6.203033,-0.416962 -12.660095,1.438713 -17.311737,5.508545c-2.330963,2.03363 -4.210815,4.593605 -5.377533,7.445793c-1.166718,2.85099 -1.623779,6.00222 -1.239746,9.053131c0.295532,2.358826 1.08902,4.660538 2.31369,6.706421c-1.263,-2.029182 -2.099274,-4.324821 -2.43808,-6.690491c-0.441803,-3.074211 -0.036438,-6.267792 1.094604,-9.177055c1.135895,-2.922806 3.002167,-5.563118 5.343292,-7.679657c4.699341,-4.252388 11.272949,-6.282997 17.667358,-5.961784c0,0 0,0 0,0c5.424072,0.272316 10.759308,2.166321 15.21524,5.318947c0,0 0,0 0,0c4.453857,3.151688 8.023346,7.53875 10.290619,12.536613c2.259247,4.981636 3.230652,10.547417 2.867188,16.056343c-0.361755,5.475334 -2.026489,10.877724 -4.77829,15.707832c-5.435089,9.518539 -15.027649,16.610825 -25.926147,19.645035c-10.600739,2.947388 -22.25943,2.201721 -32.924255,-1.686661c-8.019257,-2.918015 -15.488037,-7.623154 -21.785919,-13.751648c-6.297913,-6.128548 -11.427673,-13.682846 -14.633911,-22.224495c-2.986786,-7.986282 -4.238342,-16.7388 -3.605591,-25.540932c0.632782,-8.802139 3.150177,-17.657322 7.723389,-25.671772c3.381653,-5.905758 7.823914,-11.294369 13.117859,-15.887638c5.293945,-4.593252 11.440308,-8.391712 18.181732,-11.068392c6.342834,-2.514229 13.16626,-4.03157 20.171051,-4.46596c7.0047,-0.434401 14.191498,0.21419 21.199249,2.03842c6.591644,1.719101 12.992493,4.457541 18.942017,8.12479c5.949402,3.667219 11.447937,8.263651 16.188141,13.671228c4.462738,5.09444 8.242188,10.878941 11.19162,17.16143c2.949493,6.282494 5.069061,13.063408 6.192719,20.108833c1.43924,9.097351 1.248108,18.461746 0.303986,27.78981c-0.907837,9.045059 -2.472107,18.096581 -3.718292,27.286774c-1.904663,14.049713 -3.011993,28.635941 -3.161285,43.690445c-0.149231,15.054474 0.659454,30.578049 2.614899,46.458801z" id="path2850" stroke="#000000" fill-rule="evenodd" fill="#bf0000"/>
   <path id="path2862" d="m444.825562,312.983978c-6.982819,-3.401276 -14.241302,-5.857117 -21.53949,-7.404175c-9.95871,-4.084137 -20.629913,-6.468994 -31.386108,-6.934662c-18.086578,-0.786743 -36.42334,3.853119 -51.942352,13.151031c-15.520874,9.294769 -28.230469,23.251587 -35.999603,39.54361c0,0 0,0 0,0c-7.772339,16.290466 -10.606415,34.92099 -8.021484,52.781921c1.496979,10.27536 4.761169,20.356476 10.390686,28.981781c0,0 0,0 0,0c5.623199,8.613373 13.668549,15.802826 23.197754,19.516144c9.504211,3.708435 20.586761,3.87381 29.75885,-0.394714c0,0 0,0 0,0c4.596588,-2.127289 8.714691,-5.313141 11.804962,-9.283081c0,0 0,0 0,0c3.089783,-3.96701 5.172302,-8.735107 5.848969,-13.686829c1.076569,-7.744232 -1.414551,-15.973999 -6.493378,-21.98233c-1.380585,-1.638 -2.953613,-3.115234 -4.671265,-4.411255c-4.525757,-3.560242 -10.140472,-5.863892 -15.951843,-6.467712c-5.563965,-0.566345 -11.393677,0.378021 -16.182129,3.266693c0,0 0,0 0,0c-4.775269,2.877258 -8.497986,7.793274 -9.333405,13.35025c-0.729858,4.799744 0.761658,10.008698 4.164551,13.613678c1.702759,1.805176 3.855316,3.211334 6.232117,4.02536c2.376831,0.813995 4.97525,1.032135 7.476807,0.588257c4.707001,-0.836731 8.958618,-4.128296 10.934174,-8.569519c1.969238,-4.443848 1.591156,-9.879333 -1.063141,-14.075745c2.7453,4.136932 3.275238,9.609375 1.364532,14.20105c-1.921539,4.587158 -6.198242,8.08905 -11.107727,9.081543c-2.603546,0.521729 -5.33017,0.359619 -7.85791,-0.442596c-2.527008,-0.802704 -4.83786,-2.232452 -6.694611,-4.112518c-3.710602,-3.770569 -5.455261,-9.259155 -4.785645,-14.482117c0.790924,-6.028198 4.612366,-11.416504 9.734253,-14.647614c5.11264,-3.221741 11.321899,-4.417267 17.296173,-3.928741c8.575012,0.687164 16.846283,4.798035 22.431213,11.346924c5.581177,6.555878 8.310211,15.456268 7.175781,24.005737c0,0 -0.000061,0.000031 -0.000061,0.000031c-0.730743,5.447052 -2.974121,10.655273 -6.338684,15.002594c-3.36438,4.345398 -7.811005,7.820618 -12.793701,10.145111c-9.972198,4.634491 -21.812531,4.543182 -32.021973,0.576752c-10.197205,-3.96524 -18.748199,-11.50531 -24.69101,-20.578644c-5.939362,-9.066315 -9.402618,-19.550476 -10.973328,-30.18399c-2.743622,-18.479828 0.105133,-37.744568 8.101624,-54.679169c0,-0.000031 0,-0.000031 0,-0.000031c7.999329,-16.933289 21.101227,-31.440735 37.2034,-41.171112c16.103943,-9.727478 35.11322,-14.620605 53.969025,-13.875671c18.855713,0.748505 37.44223,7.130432 52.763977,18.133759z" stroke="#000000" fill-rule="evenodd" fill="#bf0000"/>
   <g id="g2911" fill="url(#pattern5504)">
    <path id="path2856" d="m299.14679,174.545959c-2.038483,-0.859177 -4.058777,-1.859604 -6.04068,-2.997452c-4.779327,-7.151443 -7.701508,-15.256775 -8.481628,-23.485687c0,0 0,0 0,0c-0.959351,-10.140762 1.339722,-20.412048 6.428284,-29.242973c0,0 0,0 0,0c2.120911,-3.680664 4.714569,-7.114334 7.700775,-10.208527c-2.680237,3.32476 -4.907898,6.922127 -6.630646,10.682961c-1.946899,4.249062 -3.23526,8.713562 -3.863831,13.222046c-1.132843,4.988953 -1.457825,10.149612 -0.914734,15.248123c1.024078,9.640823 5.155365,19.078232 11.80246,26.781509c0,0 0,0 0,0z" stroke="#000000" fill-rule="evenodd" fill="#bf0000"/>
    <g id="g2872" fill="url(#pattern5504)">
     <path d="m282.159027,152.928329c0,0 -10.838348,-10.516968 -15.596741,-22.363632c-3.965271,11.121368 7.005341,20.550339 15.596741,22.363632z" id="path2868" stroke="#000000" fill="#bf0000"/>
     <path id="path2870" d="m283.389221,152.375702c0,0 -8.461945,-7.561356 -16.235596,-22.470734c12.446106,0.875916 17.807526,14.542923 16.235596,22.470734z" stroke="#000000" fill="#bf0000"/>
    </g>
    <g id="g2876" fill="url(#pattern5504)">
     <path id="path2878" d="m286.338776,123.346153c0,0 -6.952087,-11.661926 -8.184998,-23.244797c-6.310333,9.115494 1.032654,19.832336 8.184998,23.244797z" stroke="#000000" fill="#bf0000"/>
     <path d="m287.567322,123.108627c0,0 -5.591217,-8.524147 -8.723877,-23.47377c10.80191,3.378204 12.11087,16.714203 8.723877,23.47377z" id="path2880" stroke="#000000" fill="#bf0000"/>
    </g>
    <g id="g2882" fill="url(#pattern5504)">
     <path d="m297.873352,107.848869c0,0 2.730225,-9.814209 8.321838,-16.812996c-8.096954,1.979469 -10.121552,11.460785 -8.321838,16.812996z" id="path2884" stroke="#000000" fill="#bf0000"/>
     <path id="path2886" d="m298.624573,108.313026c0,0 1.736908,-7.420647 8.171173,-17.200714c3.671051,7.101974 -2.823029,15.106506 -8.171173,17.200714z" stroke="#000000" fill="#bf0000"/>
    </g>
    <g id="g2888" fill="url(#pattern5504)">
     <path d="m290.772034,128.248199c0,0 13.832092,-4.110443 23.413513,-11.769516c-2.204559,10.61834 -15.615051,13.793961 -23.413513,11.769516z" id="path2890" stroke="#000000" fill="#bf0000"/>
     <path id="path2892" d="m290.049652,127.300529c0,0 10.483948,-2.68306 23.979889,-11.596512c-10.447418,-4.350624 -21.39798,4.537415 -23.979889,11.596512z" stroke="#000000" fill="#bf0000"/>
    </g>
    <g id="g2894" fill="url(#pattern5504)">
     <path id="path2896" d="m292.683289,160.060501c0,0 13.490753,-10.516953 19.413513,-22.363632c4.935699,11.121368 -8.719635,20.550339 -19.413513,22.363632z" stroke="#000000" fill="#bf0000"/>
     <path d="m291.152069,159.507874c0,0 10.532776,-7.561356 20.20874,-22.470764c-15.491821,0.875916 -22.165344,14.542953 -20.20874,22.470764z" id="path2898" stroke="#000000" fill="#bf0000"/>
    </g>
   </g>
   <g id="g2906" fill="url(#pattern5504)">
    <path d="m353.665863,206.991241c0,0.81665 0.532562,1.478683 1.189606,1.478683c0.656982,0 1.189545,-0.662033 1.189545,-1.478683c0,-0.816635 -0.532562,-1.478699 -1.189545,-1.478699c-0.657043,0 -1.189606,0.662064 -1.189606,1.478699z" id="path2900" stroke="#000000" fill="#bf0000"/>
    <path id="path2902" d="m355.849396,210.793381c-0.242432,0.908005 0.0784,1.759613 0.716644,1.902161c0.638245,0.142517 1.352173,-0.478012 1.594604,-1.386017c0.242371,-0.90799 -0.078461,-1.759628 -0.716644,-1.90213c-0.638306,-0.142548 -1.352234,0.477997 -1.594604,1.385986z" stroke="#000000" fill="#bf0000"/>
    <path d="m351.106232,211.384323c0.312592,0.889862 1.073151,1.462265 1.698608,1.278458c0.625488,-0.183792 0.879059,-1.054169 0.566589,-1.944061c-0.312683,-0.889847 -1.073181,-1.46225 -1.6987,-1.278473c-0.625427,0.183792 -0.87912,1.054199 -0.566498,1.944077z" id="path2904" stroke="#000000" fill="#bf0000"/>
   </g>
   <g id="g2981" fill="url(#pattern5504)">
    <path d="m347.317688,280.991852c-3.754028,0.516083 -7.573792,0.874512 -11.442902,1.073883c-17.577087,-3.526794 -34.271057,-10.341339 -48.930634,-19.672485c-17.717621,-11.274185 -32.546448,-26.278152 -42.494705,-43.602051c0,0 0,0 0,-0.000031c-2.107071,-3.668823 -4.008499,-7.431915 -5.695557,-11.269608c1.889664,3.759109 3.98497,7.424866 6.27417,10.978897c6.490967,10.079865 14.643265,19.176071 23.979782,27.042572c5.951996,5.460312 12.474487,10.421051 19.438904,14.794983c17.450714,10.953583 37.760742,18.279114 58.870941,20.653839c0,0 0,0 0,0z" id="path2931" stroke="#000000" fill-rule="evenodd" fill="#bf0000"/>
    <g id="g2939" fill="url(#pattern5504)">
     <path d="m240.287521,217.981018c0,0 -13.085846,-0.581543 -23.413864,-5.066635c4.701828,8.545303 17.17627,8.422333 23.413864,5.066635z" id="path2941" stroke="#000000" fill="#bf0000"/>
     <path id="path2943" d="m240.665817,217.025238c0,0 -9.804779,-0.073898 -23.860001,-4.800842c7.926193,-5.885635 19.765289,-0.645569 23.860001,4.800842z" stroke="#000000" fill="#bf0000"/>
    </g>
    <g id="g2945" fill="url(#pattern5504)">
     <path id="path2947" d="m237.594421,207.836761c0,0 -7.730972,-7.249847 -11.343033,-15.263763c-2.377167,7.350571 5.411423,13.876068 11.343033,15.263763z" stroke="#000000" fill="#bf0000"/>
     <path d="m238.419357,207.492691c0,0 -6.016464,-5.226135 -11.783447,-15.348419c8.540085,0.840225 12.619644,10.082932 11.783447,15.348419z" id="path2949" stroke="#000000" fill="#bf0000"/>
    </g>
    <g id="g2951" fill="url(#pattern5504)">
     <path id="path2953" d="m247.655396,215.531647c0,0 7.081207,-9.208115 9.372833,-18.83606c4.282867,8.195984 -3.022247,16.576752 -9.372833,18.83606z" stroke="#000000" fill="#bf0000"/>
     <path d="m246.654205,215.227615c0,0 5.602066,-6.687225 9.848206,-18.982635c-9.397705,1.920258 -11.94371,13.014832 -9.848206,18.982635z" id="path2955" stroke="#000000" fill="#bf0000"/>
    </g>
   </g>
   <g id="g2993" fill="url(#pattern5504)">
    <path id="path2995" d="m494.924713,341.132935c-3.230377,-1.793884 -6.57608,-3.502258 -10.022614,-5.117645c-17.218567,-4.226074 -34.792297,-5.806732 -51.403259,-4.844482c-20.07489,1.160461 -38.837738,6.041656 -53.981537,14.412964c0,0 0,0 0,0.000061c-3.207214,1.772797 -6.260956,3.690155 -9.146027,5.741669c3.041534,-1.919067 6.237183,-3.694183 9.569611,-5.316895c9.450012,-4.602875 20.063538,-7.881592 31.320343,-9.845154c7.333191,-1.564606 15.008759,-2.560852 22.879486,-2.976471c19.719391,-1.037262 40.759827,1.563538 60.783997,7.945953c0,0 0,0 0,0z" stroke="#000000" fill-rule="evenodd" fill="#bf0000"/>
    <g id="g2997" fill="url(#pattern5504)">
     <path id="path2999" d="m375.449158,344.565643c0,0 -12.098969,-4.581665 -23.065979,-5.370514c7.283173,-4.207642 18.578278,0.635529 23.065979,5.370514z" stroke="#000000" fill="#bf0000"/>
     <path d="m375.456329,345.380981c0,0 -8.937866,-3.68689 -23.378021,-5.727264c5.1315,7.155426 17.738007,7.990417 23.378021,5.727264z" id="path3001" stroke="#000000" fill="#bf0000"/>
    </g>
    <g id="g3003" fill="url(#pattern5504)">
     <path d="m369.428467,350.662048c0,0 -9.580322,2.142761 -15.685944,6.392822c0.428162,-6.068054 9.805847,-7.680298 15.685944,-6.392822z" id="path3005" stroke="#000000" fill="#bf0000"/>
     <path id="path3007" d="m370.057098,351.218201c0,0 -7.309113,1.37558 -16.116028,6.284332c8.058319,2.666595 15.021545,-2.268036 16.116028,-6.284332z" stroke="#000000" fill="#bf0000"/>
    </g>
    <g id="g3009" fill="url(#pattern5504)">
     <path d="m381.283264,349.095215c0,0 3.193237,9.166168 1.885162,16.800812c6.779449,-4.122101 3.0914,-12.792694 -1.885162,-16.800812z" id="path3011" stroke="#000000" fill="#bf0000"/>
     <path id="path3013" d="m380.266235,348.926849c0,0 2.736664,6.832031 2.265625,17.085114c-7.865601,-4.932037 -6.272247,-13.693512 -2.265625,-17.085114z" stroke="#000000" fill="#bf0000"/>
    </g>
   </g>
   <g id="g3015" fill="url(#pattern5504)">
    <path id="path3017" d="m478.117706,327.472015c-3.70874,-0.741089 -7.41748,-1.650909 -11.110291,-2.725494c-15.049561,-9.023102 -27.993103,-20.830414 -38.055328,-34.326202c-12.162567,-16.307861 -20.172913,-35.159332 -22.719269,-54.588135c0,0 0,0 0,-0.000015c-0.539337,-4.114639 -0.850037,-8.250427 -0.931274,-12.385986c0.301208,4.128189 0.830872,8.236191 1.585205,12.302917c2.138031,11.533508 6.211609,22.689316 11.870789,33.082016c3.434052,7.041504 7.595856,13.802124 12.399261,20.158447c12.038055,15.921356 28.161255,29.38446 46.960907,38.482452c0,0 0,0 0,0z" stroke="#000000" fill-rule="evenodd" fill="#bf0000"/>
    <g id="g3019" fill="url(#pattern5504)">
     <path id="path3021" d="m402.65976,233.719009c0,0 -12.000427,-4.807602 -19.90332,-12.363892c1.064056,9.516617 12.767761,13.46669 19.90332,12.363892z" stroke="#000000" fill="#bf0000"/>
     <path d="m403.385529,232.949219c0,0 -9.132446,-3.264114 -20.423767,-12.260956c9.698975,-2.916519 18.719635,5.837662 20.423767,12.260956z" id="path3023" stroke="#000000" fill="#bf0000"/>
    </g>
    <g id="g3025" fill="url(#pattern5504)">
     <path d="m404.095398,223.3629c0,0 -4.399231,-9.293365 -4.652191,-17.958328c-5.084747,6.093491 -0.349457,14.728821 4.652191,17.958328z" id="path3027" stroke="#000000" fill="#bf0000"/>
     <path id="path3029" d="m405.000122,223.310165c0,0 -3.585449,-6.843643 -5.030487,-18.180893c7.652222,3.568008 7.86319,13.533493 5.030487,18.180893z" stroke="#000000" fill="#bf0000"/>
    </g>
    <g id="g3031" fill="url(#pattern5504)">
     <path d="m410.498322,233.831329c0,0 10.203766,-6.296295 16.095764,-14.545624c0.808746,9.053711 -9.281799,14.503998 -16.095764,14.545624z" id="path3033" stroke="#000000" fill="#bf0000"/>
     <path id="path3035" d="m409.681213,233.221008c0,0 7.839691,-4.422882 16.597229,-14.527695c-9.529114,-1.268143 -16.230255,8.268631 -16.597229,14.527695z" stroke="#000000" fill="#bf0000"/>
    </g>
   </g>
   <g id="g3037" fill="url(#pattern5504)">
    <path d="m490.087708,143.205582c-0.815125,-3.390961 -1.462616,-6.852493 -1.93988,-10.369736c2.667297,-16.276093 8.980621,-31.967094 18.175934,-45.970673c11.109711,-16.924561 26.482513,-31.463463 44.713715,-41.704674c0,0 0,0 0,0c3.861023,-2.168938 7.838562,-4.156769 11.911987,-5.953911c-3.97406,1.976822 -7.832458,4.134953 -11.555969,6.46241c-10.560608,6.59996 -19.936584,14.649761 -27.891541,23.697701c-5.55719,5.797829 -10.531128,12.082779 -14.835144,18.731628c-10.778015,16.659409 -17.405884,35.684425 -18.579102,55.107254c0,0 0,0 0,0z" id="path3039" stroke="#000000" fill-rule="evenodd" fill="#bf0000"/>
    <g id="g3041" fill="url(#pattern5504)">
     <path d="m551.641907,41.308491c0,0 -0.244202,-11.980042 3.955261,-21.70557c-9.006714,4.864159 -8.034973,16.238968 -3.955261,21.70557z" id="path3043" stroke="#000000" fill="#bf0000"/>
     <path id="path3045" d="m552.7099,41.5895c0,0 -0.577637,-8.951981 3.635376,-22.094971c6.953125,6.837591 2.031433,17.992802 -3.635376,22.094971z" stroke="#000000" fill="#bf0000"/>
    </g>
    <g id="g3047" fill="url(#pattern5504)">
     <path id="path3049" d="m562.527771,38.169781c0,0 7.390076,-7.54141 15.890076,-11.37557c-8.178528,-1.6756 -14.774536,5.869791 -15.890076,11.37557z" stroke="#000000" fill="#bf0000"/>
     <path d="m562.958557,38.899391c0,0 5.297363,-5.840912 15.952942,-11.78301c-0.343323,7.849298 -10.152527,12.192488 -15.952942,11.78301z" id="path3051" stroke="#000000" fill="#bf0000"/>
    </g>
    <g id="g3053" fill="url(#pattern5504)">
     <path id="path3055" d="m554.808655,47.867191c0,0 10.520935,5.84341 21.178284,7.288059c-8.653687,4.458439 -18.287048,-1.644791 -21.178284,-7.288059z" stroke="#000000" fill="#bf0000"/>
     <path d="m555.073181,46.933182c0,0 7.671448,4.66293 21.370056,7.712029c-2.725891,-8.446609 -15.000244,-10.024971 -21.370056,-7.712029z" id="path3057" stroke="#000000" fill="#bf0000"/>
    </g>
   </g>
   <g id="g3059" fill="url(#pattern5504)">
    <path id="path3061" d="m458.609772,146.400696c-0.045502,0.815598 0.449615,1.501556 1.105743,1.532166c0.656128,0.030594 1.224884,-0.605789 1.270294,-1.421387c0.045502,-0.815567 -0.449585,-1.501587 -1.105713,-1.532166c-0.656097,-0.030579 -1.224884,0.605804 -1.270325,1.421387z" stroke="#000000" fill="#bf0000"/>
    <path d="m460.578766,150.299606c-0.292633,0.895523 -0.019592,1.760956 0.609924,1.933014c0.629456,0.172089 1.377014,-0.414398 1.669647,-1.309937c0.292633,-0.895554 0.019562,-1.761002 -0.609863,-1.93306c-0.629547,-0.172104 -1.377014,0.414444 -1.669708,1.309982z" id="path3063" stroke="#000000" fill="#bf0000"/>
    <path id="path3065" d="m455.80896,150.668884c0.262695,0.903305 0.990265,1.510361 1.625244,1.355927c0.634827,-0.154449 0.936676,-1.011887 0.673981,-1.915146c-0.262695,-0.903305 -0.990326,-1.510376 -1.625244,-1.355927c-0.634918,0.154434 -0.936676,1.011871 -0.673981,1.915146z" stroke="#000000" fill="#bf0000"/>
   </g>
   <g id="g3067" fill="url(#pattern5504)">
    <path d="m576.233337,107.449272c0.672302,0.537491 1.56781,0.606506 2.000183,0.154121c0.432434,-0.452377 0.238037,-1.254822 -0.434265,-1.79232c-0.672302,-0.537491 -1.567749,-0.606506 -2.000183,-0.154137c-0.432434,0.45237 -0.237976,1.254837 0.434265,1.792336z" id="path3069" stroke="#000000" fill="#bf0000"/>
    <path id="path3071" d="m580.800354,108.448227c0.587891,0.764542 1.500183,1.104111 2.037476,0.758446c0.537415,-0.34565 0.496521,-1.245644 -0.09137,-2.010185c-0.587891,-0.764526 -1.500183,-1.104088 -2.037598,-0.758446c-0.537354,0.34568 -0.496399,1.245659 0.091492,2.010185z" stroke="#000000" fill="#bf0000"/>
    <path d="m578.165039,112.103088c0.938293,0.370422 1.910034,0.223518 2.170349,-0.32814c0.260437,-0.551666 -0.289063,-1.299171 -1.227356,-1.669609c-0.938354,-0.370422 -1.910034,-0.223526 -2.17041,0.32814c-0.260376,0.551651 0.289185,1.299164 1.227417,1.669609z" id="path3073" stroke="#000000" fill="#bf0000"/>
   </g>
   <g id="g3075" fill="url(#pattern5504)">
    <path id="path3077" d="m568.195068,291.666199c-0.532166,0.655792 -0.535889,1.477753 -0.008362,1.835815c0.527588,0.358093 1.386719,0.11676 1.918884,-0.539032c0.532166,-0.655762 0.535828,-1.477661 0.008301,-1.835724c-0.527649,-0.358154 -1.386658,-0.116852 -1.918823,0.53894z" stroke="#000000" fill="#bf0000"/>
    <path d="m567.470825,295.909515c-0.786316,0.597015 -1.083679,1.455719 -0.664001,1.91806c0.419617,0.462372 1.397278,0.35321 2.183655,-0.243835c0.786316,-0.597015 1.083618,-1.455719 0.66394,-1.918091c-0.419617,-0.46228 -1.397217,-0.35318 -2.183594,0.243866z" id="path3079" stroke="#000000" fill="#bf0000"/>
    <path id="path3081" d="m563.276978,293.798767c-0.328857,0.884949 -0.091187,1.759125 0.530884,1.952423c0.622009,0.193359 1.392944,-0.36731 1.721741,-1.252289c0.328857,-0.884979 0.091187,-1.759125 -0.530884,-1.952454c-0.62207,-0.193329 -1.392883,0.36734 -1.721741,1.252319z" stroke="#000000" fill="#bf0000"/>
   </g>
   <g id="g3083" fill="url(#pattern5504)">
    <path id="path3085" d="m208.95549,100.035797c0.314346,0.764397 1.067581,1.212646 1.682571,1.00116c0.614868,-0.211464 0.858749,-1.002563 0.544403,-1.766983c-0.31427,-0.764397 -1.067505,-1.212631 -1.682571,-1.001175c-0.614853,0.211494 -0.858673,1.002579 -0.544403,1.766998z" stroke="#000000" fill="#bf0000"/>
    <path d="m212.462448,102.891823c0.122467,0.927917 0.75061,1.62178 1.402878,1.549744c0.652191,-0.072037 1.081665,-0.882675 0.959137,-1.810616c-0.122528,-0.927917 -0.750595,-1.621788 -1.402863,-1.549751c-0.652267,0.072029 -1.081604,0.882668 -0.959152,1.810623z" id="path3087" stroke="#000000" fill="#bf0000"/>
    <path id="path3089" d="m208.250198,104.971687c0.635117,0.732315 1.56723,1.023293 2.081894,0.64991c0.514801,-0.373375 0.417236,-1.269707 -0.217819,-2.002014c-0.634979,-0.732346 -1.567093,-1.023315 -2.081894,-0.64994c-0.514801,0.373375 -0.417175,1.269714 0.217819,2.002045z" stroke="#000000" fill="#bf0000"/>
   </g>
   <g id="g3091" fill="url(#pattern5504)">
    <path d="m123.642891,219.829865" id="path3093" stroke="#000000" fill="#bf0000"/>
    <path id="path3095" d="m125.660507,223.707947" stroke="#000000" fill="#bf0000"/>
    <path d="m120.895554,224.12706" id="path3097" stroke="#000000" fill="#bf0000"/>
   </g>
   <g id="g3099" fill="url(#pattern5504)">
    <path d="m21.98904,227.18338c-0.304691,0.767609 -0.05106,1.556122 0.566389,1.761185c0.617561,0.205032 1.36525,-0.251022 1.66992,-1.018646c0.3048,-0.767609 0.051201,-1.556137 -0.566319,-1.7612c-0.617561,-0.205048 -1.365252,0.251022 -1.669991,1.018661z" id="path3101" stroke="#000000" fill="#bf0000"/>
    <path id="path3103" d="m22.62282,231.438751c-0.566629,0.777832 -0.582951,1.678467 -0.0361,2.011642c0.546751,0.333176 1.449341,-0.027298 2.01597,-0.805145c0.5667,-0.777817 0.58284,-1.678497 0.036091,-2.011658c-0.546751,-0.333145 -1.449331,0.027328 -2.015961,0.805161z" stroke="#000000" fill="#bf0000"/>
    <path d="m17.94388,230.513855c-0.03817,0.934021 0.463079,1.709381 1.119631,1.731842c0.656488,0.022461 1.219629,-0.716492 1.25787,-1.650528c0.038239,-0.934021 -0.463051,-1.709396 -1.11957,-1.731842c-0.656561,-0.022476 -1.219702,0.716476 -1.257931,1.650528z" id="path3105" stroke="#000000" fill="#bf0000"/>
   </g>
   <g id="g3107" fill="url(#pattern5504)">
    <path id="path3109" d="m243.013596,323.204407c0.010025,0.816589 0.550613,1.473145 1.207657,1.4664c0.656906,-0.006744 1.181381,-0.674255 1.171356,-1.490845c-0.010086,-0.816589 -0.550827,-1.473145 -1.207657,-1.46637c-0.657043,0.006714 -1.181458,0.674225 -1.171356,1.490814z" stroke="#000000" fill="#bf0000"/>
    <path d="m245.243607,326.983826c-0.231232,0.910461 0.100113,1.758728 0.740005,1.894714c0.64003,0.135925 1.346176,-0.491882 1.577408,-1.402344c0.231293,-0.91037 -0.099991,-1.758728 -0.73996,-1.894653c-0.639954,-0.135956 -1.346237,0.491852 -1.577454,1.402283z" id="path3111" stroke="#000000" fill="#bf0000"/>
    <path id="path3113" d="m240.508102,327.623444c0.323471,0.886627 1.090942,1.451141 1.714157,1.260956c0.623169,-0.190186 0.86615,-1.063141 0.542603,-1.949738c-0.323532,-0.886627 -1.090942,-1.451172 -1.714157,-1.260956c-0.62323,0.190216 -0.86615,1.063171 -0.542603,1.949738z" stroke="#000000" fill="#bf0000"/>
   </g>
   <g id="g3115" fill="url(#pattern5504)">
    <path d="m69.796654,406.463806c-0.156937,-0.803925 -0.808517,-1.370056 -1.455276,-1.264435c-0.646744,0.105652 -1.043785,0.842987 -0.886787,1.646942c0.156929,0.803925 0.80851,1.369995 1.455254,1.264404c0.646835,-0.105621 1.043739,-0.842957 0.88681,-1.646912z" id="path3117" stroke="#000000" fill="#bf0000"/>
    <path id="path3119" d="m66.916382,403.071899c0.063995,-0.9328 -0.415474,-1.719574 -1.071175,-1.757294c-0.655716,-0.037689 -1.23922,0.687988 -1.30336,1.620819c-0.064095,0.932739 0.415375,1.719543 1.071205,1.757263c0.655701,0.037689 1.239128,-0.687958 1.303329,-1.620789z" stroke="#000000" fill="#bf0000"/>
    <path d="m71.471931,401.72757c-0.478745,-0.825745 -1.337395,-1.266937 -1.917885,-0.985474c-0.580383,0.281494 -0.66275,1.179077 -0.18396,2.004852c0.478737,0.825836 1.33741,1.267029 1.9179,0.985535c0.580437,-0.281494 0.662857,-1.179077 0.183945,-2.004913z" id="path3121" stroke="#000000" fill="#bf0000"/>
   </g>
   <g id="g3123" fill="url(#pattern5504)">
    <path d="m430.427094,404.936462c0.086365,-0.812836 -0.373688,-1.51889 -1.027618,-1.577026c-0.653931,-0.058136 -1.253998,0.55365 -1.340424,1.366486c-0.086426,0.812836 0.373596,1.51886 1.027527,1.576996c0.653931,0.058136 1.254059,-0.55365 1.340515,-1.366455z" id="path3125" stroke="#000000" fill="#bf0000"/>
    <path id="path3127" d="m428.656006,400.958954c0.337372,-0.882263 0.108154,-1.75827 -0.512115,-1.956604c-0.620117,-0.198334 -1.396301,0.35611 -1.733673,1.238403c-0.337372,0.882202 -0.108063,1.758301 0.512054,1.956604c0.620239,0.198364 1.396423,-0.35611 1.733734,-1.238403z" stroke="#000000" fill="#bf0000"/>
    <path d="m433.439423,400.790558c-0.21698,-0.913422 -0.913361,-1.550385 -1.555389,-1.422852c-0.642059,0.127594 -0.986542,0.971497 -0.769562,1.884827c0.21698,0.91333 0.913391,1.550385 1.55542,1.42276c0.641968,-0.127594 0.986511,-0.971405 0.769531,-1.884735z" id="path3129" stroke="#000000" fill="#bf0000"/>
   </g>
   <g id="g3131" fill="url(#pattern5504)">
    <path d="m558.135925,424.874908c-0.07312,0.813934 0.398376,1.513702 1.053101,1.562836c0.654846,0.049225 1.244873,-0.570679 1.318054,-1.384552c0.073181,-0.813934 -0.398376,-1.513641 -1.053162,-1.562836c-0.654785,-0.049194 -1.244873,0.570679 -1.317993,1.384552z" id="path3133" stroke="#000000" fill="#bf0000"/>
    <path id="path3135" d="m559.971558,428.82785c-0.322998,0.886841 -0.079407,1.759674 0.543945,1.949432c0.623352,0.18988 1.390381,-0.375061 1.713318,-1.261871c0.322937,-0.886841 0.079407,-1.759583 -0.543884,-1.949432c-0.623413,-0.18988 -1.390442,0.375092 -1.713379,1.261871z" stroke="#000000" fill="#bf0000"/>
    <path d="m555.191467,429.061554c0.231873,0.910309 0.938538,1.53772 1.578369,1.401398c0.639893,-0.136353 0.970581,-0.984772 0.73877,-1.895081c-0.231934,-0.910278 -0.938538,-1.53775 -1.57843,-1.401428c-0.639832,0.136353 -0.970581,0.984833 -0.738708,1.895111z" id="path3137" stroke="#000000" fill="#bf0000"/>
   </g>
   <g id="g3139" fill="url(#pattern5504)">
    <path d="m444.464172,451.319672c2.244263,-0.029388 4.534576,-0.194641 6.850677,-0.499664c7.539642,-4.764618 13.804474,-11.089874 18.166168,-18.322571c0,0 0,0 0,0c5.373199,-8.913818 7.825653,-19.155365 7.089691,-29.114868c0,0 0,0 0,0c-0.306732,-4.151031 -1.155151,-8.251678 -2.512878,-12.187531c0.9758,4.033234 1.417053,8.147675 1.32431,12.224335c-0.104279,4.606079 -0.906097,9.164856 -2.330475,13.519135c-1.176483,4.98053 -3.167572,9.818359 -5.924652,14.277496c-5.210602,8.4328 -13.171295,15.527344 -22.662842,20.103668c0,0 0,0 0,0z" id="path3141" stroke="#000000" fill-rule="evenodd" fill="#bf0000"/>
    <g id="g3143" fill="url(#pattern5504)">
     <path id="path3145" d="m469.577423,437.859314c0,0 14.570221,-5.593903 24.172333,-14.658203c-1.306335,11.636597 -15.515076,16.186951 -24.172333,14.658203z" stroke="#000000" fill="#bf0000"/>
     <path d="m468.697845,436.897888c0,0 11.087616,-3.773499 24.803955,-14.519104c-11.765198,-3.815155 -22.725769,6.689392 -24.803955,14.519104z" id="path3147" stroke="#000000" fill="#bf0000"/>
    </g>
    <g id="g3149" fill="url(#pattern5504)">
     <path d="m478.872925,409.268372c0,0 11.525513,-8.081818 17.788147,-18.212433c1.726563,10.672729 -9.737213,17.745667 -17.788147,18.212433z" id="path3151" stroke="#000000" fill="#bf0000"/>
     <path id="path3153" d="m477.855225,408.595551c0,0 8.89035,-5.71817 18.382172,-18.221802c-11.371735,-0.918091 -18.481201,10.786865 -18.382172,18.221802z" stroke="#000000" fill="#bf0000"/>
    </g>
    <g id="g3155" fill="url(#pattern5504)">
     <path id="path3157" d="m475.200439,390.824554c0,0 1.855713,-9.983673 -0.152405,-18.454956c6.523712,4.812347 4.170502,14.230011 0.152405,18.454956z" stroke="#000000" fill="#bf0000"/>
     <path d="m474.307861,390.970215c0,0 1.702545,-7.427246 0.157257,-18.753448c-6.504517,5.130371 -4.117401,14.855743 -0.157257,18.753448z" id="path3159" stroke="#000000" fill="#bf0000"/>
    </g>
    <g id="g3161" fill="url(#pattern5504)">
     <path id="path3163" d="m472.646942,412.105072c0,0 -10.82132,-8.887146 -16.183655,-19.441681c-2.69281,10.523743 8.157623,18.400055 16.183655,19.441681z" stroke="#000000" fill="#bf0000"/>
     <path d="m473.727509,411.506744c0,0 -8.393738,-6.340698 -16.778259,-19.493652c11.478943,-0.102264 17.548004,12.083435 16.778259,19.493652z" id="path3165" stroke="#000000" fill="#bf0000"/>
    </g>
    <g id="g3167" fill="url(#pattern5504)">
     <path d="m456.794922,440.475647c0,0 -7.668732,-14.616699 -7.830139,-27.642212c-9.442657,8.335449 -1.141052,22.018738 7.830139,27.642212z" id="path3169" stroke="#000000" fill="#bf0000"/>
     <path id="path3171" d="m458.439728,440.538391c0,0 -6.275421,-10.818054 -8.509552,-28.035065c13.772522,6.546051 13.813049,21.513977 8.509552,28.035065z" stroke="#000000" fill="#bf0000"/>
    </g>
   </g>
   <g id="g3173" fill="url(#pattern5504)">
    <path d="m245.023712,442.345398c-1.75676,0.910217 -3.618225,1.736511 -5.570801,2.467438c-8.272964,-0.481293 -16.349884,-2.676056 -23.410828,-6.349854c0,0 0,0 0,0c-8.700562,-4.528656 -15.809143,-11.278076 -20.299866,-19.138245c0,0 0,0 0,0c-1.87175,-3.276123 -3.297363,-6.739014 -4.244064,-10.288574c1.292496,3.464722 3.041183,6.76889 5.185104,9.822601c2.422028,3.45047 5.361206,6.575226 8.67981,9.286194c3.444382,3.28891 7.448441,6.131195 11.854523,8.36795c8.329865,4.231384 18.113846,6.304993 27.806122,5.832489c0,0 0,0 0,0z" id="path3175" stroke="#000000" fill-rule="evenodd" fill="#bf0000"/>
    <g id="g3177" fill="url(#pattern5504)">
     <path id="path3179" d="m218.692383,442.570068c0,0 -14.150925,1.810944 -26.209854,-1.074738c6.928116,8.283783 20.26799,5.831482 26.209854,1.074738z" stroke="#000000" fill="#bf0000"/>
     <path d="m218.886337,441.475372c0,0 -10.522812,1.74469 -26.629364,-0.706879c7.191772,-7.782288 21.037048,-4.36853 26.629364,0.706879z" id="path3181" stroke="#000000" fill="#bf0000"/>
    </g>
    <g id="g3183" fill="url(#pattern5504)">
     <path d="m196.946976,424.745636c0,0 -13.052368,-1.341217 -23.061615,-6.423309c4.084412,8.812805 16.576126,9.41449 23.061615,6.423309z" id="path3185" stroke="#000000" fill="#bf0000"/>
     <path id="path3187" d="m197.394775,423.812531c0,0 -9.805954,-0.643402 -23.527359,-6.183685c8.358871,-5.421326 19.825409,0.50296 23.527359,6.183685z" stroke="#000000" fill="#bf0000"/>
    </g>
    <g id="g3189" fill="url(#pattern5504)">
     <path id="path3191" d="m190.422974,409.229858c0,0 -6.514328,-6.801697 -9.261353,-14.061676c-2.617172,6.36087 3.995697,12.526489 9.261353,14.061676z" stroke="#000000" fill="#bf0000"/>
     <path d="m191.189758,408.969543c0,0 -5.096329,-4.926361 -9.653595,-14.159485c7.655701,1.188873 10.745911,9.557556 9.653595,14.159485z" id="path3193" stroke="#000000" fill="#bf0000"/>
    </g>
    <g id="g3195" fill="url(#pattern5504)">
     <path id="path3197" d="m203.220535,424.310547c0,0 3.881454,-11.237366 2.678711,-21.471222c7.438614,6.863586 3.02092,17.346222 -2.678711,21.471222z" stroke="#000000" fill="#bf0000"/>
     <path d="m202.077866,424.305634c0,0 3.291565,-8.297119 3.113647,-21.757599c-8.960556,4.691956 -7.477203,16.456696 -3.113647,21.757599z" id="path3199" stroke="#000000" fill="#bf0000"/>
    </g>
    <g id="g3201" fill="url(#pattern5504)">
     <path d="m229.94249,439.243439c0,0 -1.47728,-14.273407 -7.972305,-24.22049c11.564789,2.399139 12.07663,16.227478 7.972305,24.22049z" id="path3203" stroke="#000000" fill="#bf0000"/>
     <path id="path3205" d="m228.69783,439.974426c0,0 -0.628006,-10.813049 -7.644547,-24.800781c-7.361801,10.687805 0.214294,22.058075 7.644547,24.800781z" stroke="#000000" fill="#bf0000"/>
    </g>
   </g>
   <g id="g3228" fill="url(#pattern5504)">
    <path d="m66.693382,191.465591c-2.774273,-0.320389 -5.574402,-0.831818 -8.370663,-1.534531c-9.952351,-6.796051 -17.651859,-16.177094 -21.940189,-26.756134c-5.22476,-12.899399 -5.332069,-27.461456 -0.468849,-40.473946c1.483177,-3.968628 3.411739,-7.794914 5.738758,-11.397095c-2.06329,3.733124 -3.69656,7.63871 -4.871269,11.628052c-2.086811,7.084236 -2.67342,14.440331 -1.847939,21.563759c0.305008,6.055634 1.627289,12.056015 3.971767,17.69278c5.111629,12.30629 15.098202,22.883179 27.788383,29.277115c0,0 0,0 0,0z" id="path3230" stroke="#000000" fill-rule="evenodd" fill="#bf0000"/>
    <g id="g3232" fill="url(#pattern5504)">
     <path id="path3234" d="m32.898121,157.791153c0,0 -12.48332,-8.524796 -19.203541,-19.390915c-1.99988,11.630936 10.426979,19.061249 19.203541,19.390915z" stroke="#000000" fill="#bf0000"/>
     <path d="m34.015442,157.037994c0,0 -9.634752,-6.015472 -19.851312,-19.388123c12.413859,-1.247681 20.040559,11.309875 19.851312,19.388123z" id="path3236" stroke="#000000" fill="#bf0000"/>
    </g>
    <g id="g3238" fill="url(#pattern5504)">
     <path d="m31.94339,127.933517c0,0 -8.8503,-10.31205 -12.051491,-21.516144c-4.65453,10.052139 4.418711,19.366653 12.051491,21.516144z" id="path3240" stroke="#000000" fill="#bf0000"/>
     <path id="path3242" d="m33.113232,127.491119c0,0 -6.971212,-7.451019 -12.621712,-21.650383c11.22296,1.49678 14.799789,14.415443 12.621712,21.650383z" stroke="#000000" fill="#bf0000"/>
    </g>
    <g id="g3244" fill="url(#pattern5504)">
     <path id="path3246" d="m40.65136,110.707039c0,0 1.007061,-10.133446 5.316479,-17.978027c-7.638866,3.323669 -8.007668,13.00946 -5.316479,17.978027z" stroke="#000000" fill="#bf0000"/>
     <path d="m41.4711,111.036987c0,0 0.43885,-7.606445 5.101749,-18.334488c4.83511,6.375359 -0.19109,15.363991 -5.101749,18.334488z" id="path3248" stroke="#000000" fill="#bf0000"/>
    </g>
    <g id="g3250" fill="url(#pattern5504)">
     <path id="path3252" d="m37.152451,132.011917c0,0 12.924519,-6.396065 21.051991,-15.567886c-0.3512,10.836693 -13.02066,16.240082 -21.051991,15.567886z" stroke="#000000" fill="#bf0000"/>
     <path d="m36.278019,131.200623c0,0 9.870331,-4.421776 21.639942,-15.493462c-11.04055,-2.515068 -20.306431,8.099899 -21.639942,15.493462z" id="path3254" stroke="#000000" fill="#bf0000"/>
    </g>
    <g id="g3256" fill="url(#pattern5504)">
     <path d="m44.49144,163.034012c0,0 11.48946,-12.650848 15.293892,-25.32843c6.770515,10.121414 -5.067692,21.728088 -15.293892,25.32843z" id="path3258" stroke="#000000" fill="#bf0000"/>
     <path id="path3260" d="m42.887798,162.749146c0,0 9.081711,-9.236832 16.059082,-25.568802c-15.1147,3.490356 -19.3466,18.088959 -16.059082,25.568802z" stroke="#000000" fill="#bf0000"/>
    </g>
   </g>
  </g>
 </g>
</svg>