<?xml version="1.0" encoding="iso-8859-1"?>
<!-- Generator: Adobe Illustrator 17.1.0, SVG Export Plug-In . SVG Version: 6.00 Build 0)  -->
<!DOCTYPE svg PUBLIC "-//W3C//DTD SVG 1.1//EN" "http://www.w3.org/Graphics/SVG/1.1/DTD/svg11.dtd">
<svg xmlns="http://www.w3.org/2000/svg" xmlns:xlink="http://www.w3.org/1999/xlink" version="1.1" id="Capa_1" x="0px" y="0px" viewBox="0 0 512 512" style="enable-background:new 0 0 512 512;" xml:space="preserve" width="512px" height="512px">
<g>
	<path d="M192,304c-8.822,0-16,7.178-16,16s7.178,16,16,16s16-7.178,16-16S200.822,304,192,304z" fill="#2b2b2b"/>
	<path d="M320,304c-8.822,0-16,7.178-16,16s7.178,16,16,16s16-7.178,16-16S328.822,304,320,304z" fill="#2b2b2b"/>
	<path d="M479.969,383.403c-0.007-0.089-0.011-0.177-0.021-0.266c-0.032-0.295-0.076-0.589-0.14-0.879c0,0,0,0,0,0   c-0.005-0.023-0.01-0.046-0.016-0.069c-0.865-3.854-17.644-76.356-64.658-130.191c-0.952-8.661,2.655-47.012,5.854-81.018   c3.156-33.553,6.733-71.584,8.355-102.381c2.713-51.515-1.356-60.549-5.384-64.974C421.832,1.287,419.005,0,416,0   c-20.689,0-38.958,24.669-64.243,58.813c-19.291,26.05-41.124,55.501-67.532,77.884C276.413,135.6,266.528,135,256,135   s-20.413,0.6-28.225,1.697c-26.409-22.383-48.241-51.834-67.532-77.884C134.958,24.669,116.689,0,96,0   c-3.005,0-5.832,1.287-7.959,3.625c-4.028,4.424-8.098,13.459-5.384,64.974c1.622,30.797,5.199,68.828,8.355,102.381   c3.199,34.005,6.806,72.357,5.854,81.018c-47.014,53.835-63.793,126.337-64.658,130.191c-0.005,0.023-0.01,0.046-0.016,0.069   c0,0,0,0,0,0c-0.065,0.291-0.109,0.585-0.14,0.88c-0.01,0.088-0.014,0.176-0.021,0.265c-0.016,0.211-0.023,0.422-0.022,0.633   c0,0.099,0.001,0.197,0.005,0.295c0.009,0.225,0.03,0.448,0.058,0.672c0.009,0.07,0.013,0.141,0.024,0.211   c0.045,0.293,0.106,0.584,0.183,0.872c0.012,0.046,0.029,0.09,0.043,0.136c0.07,0.242,0.15,0.479,0.243,0.714   c0.03,0.075,0.063,0.149,0.095,0.224c0.089,0.207,0.187,0.41,0.294,0.611c0.038,0.071,0.076,0.143,0.116,0.213   c0.122,0.213,0.256,0.419,0.399,0.622c0.034,0.048,0.063,0.097,0.098,0.144c0.182,0.246,0.378,0.485,0.591,0.712   c0.004,0.005,0.008,0.01,0.012,0.015c0.029,0.031,0.063,0.057,0.093,0.088c0.147,0.151,0.296,0.302,0.457,0.444   c0.033,0.029,0.068,0.053,0.101,0.081c0.067,0.058,0.137,0.11,0.207,0.166c0.173,0.137,0.349,0.267,0.529,0.388   c0.068,0.045,0.136,0.092,0.206,0.135c0.242,0.151,0.488,0.292,0.74,0.415c0.006,0.003,0.012,0.007,0.019,0.01   c0.274,0.132,0.553,0.245,0.837,0.344c0.054,0.019,0.108,0.034,0.162,0.052c0.23,0.075,0.462,0.139,0.696,0.192   c0.07,0.017,0.14,0.033,0.211,0.047c0.287,0.057,0.574,0.104,0.864,0.13c0.008,0,0.015,0,0.023,0.001   c0.227,0.019,0.454,0.03,0.682,0.03c0.048,0,0.096-0.007,0.145-0.007c0.119-0.002,0.238-0.011,0.357-0.019   c0.192-0.012,0.382-0.03,0.573-0.055c0.06-0.008,0.12-0.008,0.18-0.018c9.381-1.485,20.78-2.308,28.313-1.892l-5.153,15.46   c-0.688,2.062-0.506,4.314,0.501,6.24c1.008,1.925,2.755,3.357,4.841,3.968c0.861,0.252,86.23,25.48,124.084,57.68   c2.932,2.938,6.191,5.498,9.767,7.62c4.122,2.447,8.547,4.192,13.17,5.288C220.427,500.921,236.624,512,256,512   c19.376,0,35.573-11.08,39.225-25.734c4.624-1.096,9.049-2.842,13.17-5.288c3.576-2.123,6.835-4.682,9.767-7.62   c37.822-32.172,123.224-57.428,124.085-57.68c2.085-0.61,3.833-2.043,4.84-3.969c1.007-1.925,1.189-4.178,0.501-6.239   l-5.161-15.483c7.551-0.426,18.942,0.434,28.322,1.915c0.058,0.009,0.116,0.009,0.174,0.017c0.196,0.027,0.392,0.044,0.59,0.056   c0.112,0.007,0.223,0.016,0.334,0.018c0.051,0.001,0.102,0.008,0.153,0.008c0.531,0,1.062-0.059,1.585-0.164   c0.058-0.012,0.116-0.026,0.174-0.039c0.251-0.057,0.5-0.125,0.745-0.206c0.041-0.014,0.082-0.025,0.122-0.039   c0.56-0.195,1.103-0.455,1.619-0.78c0.062-0.039,0.121-0.079,0.182-0.12c0.19-0.127,0.375-0.263,0.556-0.408   c0.063-0.05,0.126-0.098,0.187-0.149c0.035-0.03,0.072-0.055,0.107-0.085c0.173-0.152,0.332-0.313,0.489-0.475   c0.02-0.021,0.042-0.038,0.062-0.059c0.003-0.003,0.005-0.007,0.008-0.01c0.217-0.231,0.415-0.473,0.6-0.723   c0.028-0.039,0.053-0.079,0.081-0.118c0.15-0.211,0.289-0.428,0.416-0.649c0.037-0.064,0.071-0.13,0.106-0.195   c0.111-0.208,0.213-0.418,0.305-0.633c0.029-0.068,0.059-0.136,0.087-0.205c0.096-0.243,0.18-0.489,0.251-0.738   c0.011-0.039,0.026-0.076,0.036-0.115c0.078-0.289,0.139-0.582,0.184-0.877c0.01-0.068,0.014-0.136,0.023-0.205   c0.029-0.225,0.049-0.45,0.059-0.677c0.004-0.098,0.004-0.196,0.005-0.294C479.992,383.824,479.984,383.614,479.969,383.403z    M256,496c-9.114,0-17.231-3.598-21.278-8.733c6.987-0.792,14.161-2.887,21.278-6.286c7.117,3.4,14.291,5.495,21.278,6.286   C273.23,492.402,265.113,496,256,496z M255.97,447.104C245.651,441.731,240,434.994,240,432c0-8.822,7.178-16,16-16s16,7.178,16,16   C272,436.163,264.089,442.782,255.97,447.104z M376.129,353.431c0.791,4.347,4.954,7.234,9.302,6.44   c7.963-1.447,36.94-1.923,62.406,14.032c-7.351-0.031-14.597,0.651-19.27,2.871c-3.651,1.735-5.435,5.921-4.157,9.756l5.414,16.241   c-8.828,2.814-24.161,7.949-41.698,14.897c-21.293,8.436-39.393,16.963-54.165,25.502C335.3,437.189,336,430.77,336,424   c0-30.222,11.007-43.445,20.24-49.216c3.747-2.342,4.885-7.277,2.544-11.024c-2.342-3.746-7.276-4.886-11.024-2.544   C329.599,372.566,320,394.277,320,424c0,16.109-4.679,29.451-13.058,37.936c-0.097,0.097-0.192,0.194-0.283,0.295   c-1.952,1.931-4.098,3.604-6.431,4.989c-10.152,6.026-22.885,5.917-36.228-0.174v-6.088c8.563-4.605,24-14.861,24-28.958   c0-17.645-14.355-32-32-32s-32,14.355-32,32c0,14.097,15.437,24.353,24,28.958v6.088c-13.344,6.092-26.077,6.201-36.228,0.174   c-2.333-1.385-4.479-3.058-6.431-4.989c-0.091-0.1-0.186-0.198-0.283-0.295C196.679,453.451,192,440.109,192,424   c0-29.723-9.599-51.434-27.76-62.784c-3.748-2.342-8.683-1.202-11.024,2.544c-2.341,3.747-1.203,8.683,2.544,11.024   C164.993,380.555,176,393.778,176,424c0,6.77,0.7,13.189,2.039,19.17c-14.772-8.539-32.873-17.066-54.165-25.502   c-17.537-6.948-32.87-12.083-41.698-14.897l5.414-16.241c1.278-3.835-0.505-8.021-4.157-9.756c-4.674-2.22-11.92-2.902-19.27-2.871   c25.466-15.955,54.442-15.479,62.406-14.031c4.349,0.793,8.511-2.093,9.302-6.44c0.79-4.347-2.093-8.512-6.44-9.302   c-11.596-2.109-44.909-2.086-74.224,16.5c8.78-25.87,25.977-66.87,54.776-99.319c4.295-4.839,4.46-12.077-3.042-91.829   c-3.05-32.422-6.506-69.169-8.169-99.174c-0.834-15.048-1.074-26.096-0.988-34.219c16.645,31.194,48.692,92.575,63.401,120.791   l-23.616-4.724c-3.075-0.614-6.226,0.623-8.059,3.167c-1.833,2.544-2.012,5.924-0.456,8.646C135.26,174.83,144,193.188,144,200   c0,10.395-11.675,16.892-11.753,16.935c-3.902,2.073-5.384,6.917-3.312,10.818c1.438,2.706,4.207,4.249,7.072,4.249   c1.266,0,2.551-0.301,3.747-0.937C140.58,230.626,160,220.078,160,200c0-7.702-4.663-19.375-9.181-28.878l23.612,4.723   c3.018,0.603,6.116-0.578,7.966-3.041c1.849-2.461,2.121-5.766,0.7-8.498c-2.495-4.793-55.448-106.532-74.894-142.655   c11.257,8.974,24.937,27.446,39.182,46.683c20.156,27.218,43,58.067,71.494,81.811c0.982,0.818,2.102,1.352,3.266,1.629   c1.598,1,3.548,1.451,5.551,1.117C234.913,151.689,245.229,151,256,151s21.087,0.689,28.305,1.892   c0.445,0.074,0.887,0.109,1.324,0.109c1.533,0,2.991-0.448,4.235-1.228c1.161-0.277,2.279-0.811,3.258-1.627   c28.494-23.744,51.338-54.593,71.494-81.811c14.245-19.236,27.925-37.708,39.182-46.683   c-19.446,36.123-72.4,137.862-74.894,142.655c-1.421,2.731-1.149,6.036,0.7,8.498c1.85,2.462,4.949,3.645,7.966,3.041l23.612-4.723   C356.663,180.625,352,192.298,352,200c0,20.078,19.42,30.626,20.247,31.065c1.196,0.635,2.48,0.937,3.747,0.937   c2.864,0,5.634-1.542,7.072-4.249c2.073-3.901,0.59-8.745-3.312-10.818C379.636,216.873,368,210.4,368,200   c0-6.797,8.74-25.162,14.947-36.032c1.554-2.723,1.375-6.103-0.458-8.646s-4.985-3.781-8.058-3.167l-23.616,4.724   c14.709-28.216,46.755-89.596,63.401-120.791c0.086,8.124-0.153,19.171-0.988,34.219c-1.663,30.005-5.12,66.752-8.169,99.174   c-7.502,79.751-7.337,86.989-3.042,91.829c28.746,32.39,45.96,73.417,54.758,99.308c-29.311-18.575-62.616-18.598-74.205-16.489   C378.222,344.919,375.339,349.084,376.129,353.431z" fill="#2b2b2b"/>
</g>
<g>
</g>
<g>
</g>
<g>
</g>
<g>
</g>
<g>
</g>
<g>
</g>
<g>
</g>
<g>
</g>
<g>
</g>
<g>
</g>
<g>
</g>
<g>
</g>
<g>
</g>
<g>
</g>
<g>
</g>
</svg>
