<?xml version="1.0" encoding="UTF-8"?>
<svg xmlns="http://www.w3.org/2000/svg" height="700" width="1400">
<rect style="fill:#000" height="700" width="1400"/>
<path style="fill:#fff" d="m 1400,-2.9019805e-7 -197.5999,0 C 1192.3651,6.3808097 1188.1454,9.9485332 1180.7861,22.952768 c -4.066,-12.607884 -10.1752,-16.6249899 -17.6297,-20.9451824 -4.5666,12.8562884 -4.98,27.5295074 8.8478,37.1175624 -3.3459,5.303955 -8.0138,11.201368 -11.8362,16.274276 -4.6642,-15.880783 -14.7182,-19.587695 -23.7819,-21.962387 -2.7536,12.324565 -1.691,29.448248 11.2898,38.109193 -4.4888,4.903441 -9.4027,12.51619 -15.1541,17.92287 -2.1513,-21.068159 -18.8548,-24.30104 -27.7357,-26.774207 -9.5738,22.654867 0.01,37.523707 13.429,41.893837 -7.315,6.16294 -14.6567,13.83791 -21.3038,19.04415 0.4409,-25.918208 -19.5636,-29.758308 -27.2056,-31.647869 -14.2214,15.534119 -10.1447,38.011359 8.1523,46.840259 -7.8244,5.36853 -20.5427,15.36401 -29.8047,21.12932 5.2022,-19.7724 -0.017,-37.39886 -19.5083,-47.41217 -20.3928,12.1996 -23.7591,49.81905 -4.3988,62.12549 -7.543,4.31049 -19.5309,11.66766 -27.67775,16.03499 1.73582,-25.18187 2.11937,-37.74818 -19.43587,-58.99374 -18.6092,19.06613 -21.12327,54.22808 -8.8635,75.68023 -7.13954,3.58556 -17.20028,8.90551 -23.83513,11.97762 2.88125,-23.57758 9.34744,-43.43432 -22.3529,-74.67851 -22.99734,31.53757 -27.86228,73.9681 -13.93331,90.64264 -8.8295,3.7264 -21.29629,9.92966 -29.50233,13.26708 9.61782,-32.61076 13.74631,-62.52596 -12.83031,-94.21517 -36.26866,33.16595 -30.94526,82.55247 -22.74632,109.63163 -7.20545,2.8621 -15.63984,6.25716 -23.60847,9.41264 6.56762,-34.82856 11.1979,-84.30633 -21.48837,-111.96378 -41.18629,39.32242 -29.74105,106.89274 -20.30667,129.43416 -9.14173,3.62643 -18.08845,7.17961 -27.63806,10.98487 7.37775,-36.31405 14.09184,-106.38322 -18.6208,-132.72861 -46.98152,40.38959 -32.27946,118.34509 -15.86006,146.78777 -12.1875,4.90032 -24.25386,10.04867 -36.51698,15.04263 9.8747,-38.87605 22.64551,-109.54089 -27.07607,-156.00944 -47.33655,60.67243 -40.16754,141.16553 -21.90855,179.6801 -13.65372,5.90323 -28.66899,13.82569 -39.8113,18.61034 6.36817,-30.80936 24.58159,-143.6396 -27.45016,-185.58499 -71.40999,56.00199 -40.64316,155.95645 -21.04724,209.9939 -16.76405,7.63319 -34.98107,17.15428 -50.20983,24.81418 4.8439,-40.90985 30.44006,-155.77704 -43.87811,-208.56806 -83.13655,60.95136 -42.23066,212.16348 -19.22621,246.5368 -13.20531,7.64061 -29.59879,19.25117 -43.60995,28.21801 6.59745,-42.80954 10.46915,-195.32074 -65.44909,-215.01033 -68.46278,88.34196 -17.10176,202.68067 1.53095,248.50172 C 271.3092,561.22902 195.82468,622.32663 128.56851,700 L 1400,700 Z"/>
<path style="fill:#000" d="m 1229.0465,0 c -17.4833,1.7323533 -28.5512,8.3587468 -38.1915,19.78072 -11.46,13.577911 -27.2326,44.112449 -43.9028,63.78719 -30.6934,36.22546 -60.676,64.36087 -128.4401,105.76106 C 941.61187,236.31082 850.73094,271.04682 738.3096,323.21504 626.38066,375.15477 505.4246,433.80499 404.11914,503.74682 324.6869,558.58727 264.40922,619.03173 203.59143,700 l 68.9331,0 c 26.56043,-51.70484 61.38531,-88.65859 108.35318,-132.78512 31.98068,69.04456 131.75217,99.44029 221.70935,84.84301 -26.93813,-50.55612 -92.65633,-100.53136 -170.86778,-126.55516 13.88317,-9.74329 32.68906,-23.39289 46.96519,-32.70149 21.4661,73.26174 131.52043,120.76982 201.29661,103.58171 -15.48137,-42.34032 -65.94056,-108.06522 -148.85496,-138.07261 13.66774,-8.2192 15.75603,-10.10668 28.5776,-17.06402 35.41881,64.95106 138.45644,94.93966 175.182,90.21129 -11.56652,-56.03389 -58.91061,-94.80342 -116.08665,-122.57328 8.96437,-4.43399 18.10764,-8.91463 27.53766,-13.45862 22.23335,52.19781 118.48414,90.52125 154.06446,84.77014 -19.98622,-47.84891 -50.3276,-88.82148 -107.18319,-107.68935 10.45125,-4.87287 17.37146,-8.83342 26.70343,-13.10836 26.99706,54.01478 100.1351,78.25824 142.03846,71.80877 -10.3946,-39.07653 -46.05451,-83.27961 -99.67688,-92.52268 9.65984,-4.35949 18.221,-8.98141 27.54363,-13.16336 28.16607,39.32829 92.7523,62.42087 134.60113,62.61439 -13.18554,-35.28985 -27.53649,-71.50896 -93.42274,-82.83723 9.72814,-4.36281 21.70466,-11.29177 30.51222,-15.27615 31.24228,40.08252 79.72726,55.69545 130.25917,48.86775 -8.87341,-27.43164 -39.96531,-56.34981 -94.23448,-67.07346 9.56606,-4.49173 17.16651,-9.05779 25.89746,-13.44863 30.49717,40.32876 80.0425,37.35978 119.5433,35.57446 -15.1401,-30.73146 -23.3278,-37.67246 -75.57366,-58.79817 8.40671,-4.47986 15.19111,-9.0176 23.46602,-13.6057 25.15974,28.92425 79.86994,28.78639 108.07964,23.27721 -7.7847,-22.93272 -39.775,-37.07411 -82.5073,-38.79366 9.0733,-5.28141 17.8368,-11.68414 26.1018,-16.90468 22.506,30.56737 58.2229,25.20141 92.8296,18.63056 -14.0224,-26.90377 -33.8932,-34.42809 -71.6311,-33.22968 8.9762,-6.22331 20.2374,-15.40035 27.6593,-21.07264 19.5876,24.25777 52.505,29.68082 87.8896,9.90973 -15.5421,-20.58333 -35.8269,-29.2264 -71.0399,-24.71688 5.8249,-4.85202 12.9594,-11.83332 18.0621,-16.69127 21.2036,19.36576 58.5266,7.80873 74.0917,-3.05344 -8.2482,-10.24093 -26.9291,-19.204715 -54.9697,-17.90366 3.5187,-3.921425 8.0168,-9.181007 11.3574,-13.339605 22.8327,14.475335 46.1258,6.170705 59.6958,-4.60857 -13.5092,-13.949314 -30.8295,-14.825929 -50.6673,-8.845596 3.6694,-5.092273 7.1961,-10.3854 10.5773,-15.884162 16.9426,9.350585 42.5829,4.268322 50.0234,-12.271559 -6.6393,-6.425342 -28.4294,-6.481339 -42.2928,-3.309178 1.3828,-2.585217 2.2128,-6.664337 3.531,-9.344075 C 1209.5773,36.25908 1229.8053,26.989326 1229.0465,0 Z"/>
</svg>
