<?xml version="1.0" encoding="utf-8"?>
<!-- Generator: Adobe Illustrator 18.0.0, SVG Export Plug-In . SVG Version: 6.00 Build 0)  -->
<!DOCTYPE svg PUBLIC "-//W3C//DTD SVG 1.1//EN" "http://www.w3.org/Graphics/SVG/1.1/DTD/svg11.dtd">
<svg version="1.1" id="Слой_2" xmlns="http://www.w3.org/2000/svg" xmlns:xlink="http://www.w3.org/1999/xlink" x="0px" y="0px"
	 viewBox="0 168 1590 995.5" enable-background="new 0 168 1590 995.5" xml:space="preserve">
<path fill="#000000"    d="M1429.1,535.5v-91h5.6v-6.4h-5.6v-46.4h5.6v-6.4
	h-5.6v-15.6h-1.1l-24.6-110.4l-24.6,110.4h-9.8l-32.9-190.4l-32.9,190.4h-8.2l-24.4-110.5L1246,369.6h-2.4v15.6h-6.4v6.4h6.4V438
	h-6.4v6.4h6.4v21.1h-413h-1.3c-6.4-15-33.4-23.2-33.4-23.2s0,0-0.1,0c-0.1,0-0.1,0-0.1,0s-27,8.2-33.4,23.2h-1.3H347.7v-21.1h6.4
	V438h-6.4v-46.4h6.4v-6.4h-6.4v-15.6h-2.4l-24.6-110.4L296,369.6h-8.2l-32.9-190.4l-32.9,190.4h-9.8l-24.6-110.4L163,369.6h-1.1
	v15.6h-5.6v6.4h5.6V438h-5.6v6.4h5.6v91L0.7,687.8v76.7v24.8v165.5v9.5v28.8h112.8v170.3h291.1v-126.1
	c43.5-45.2,104.4-99.4,150.8-143C609.6,843.1,740,749.6,740,749.6l-22-36L346.2,950.1h-8.9v-44.8h5.6v-6.4h-5.6V798.1h5.6v-6.4h-5.6
	v-16h5.6v-6.4h-5.6v-89.6h5.6v-6.4h-5.6v-19.2h5.6v-6.5h-5.6v-51.8h10.3v-23.3h6.4v-6.4h-6.4v-14.4h6.4v-6.4h-6.4v-3.8h413h69.8h413
	v3.8h-6.4v6.4h6.4v14.4h-6.4v6.4h6.4v23.3h10.3v51.8h-5.6v6.4h5.6v19.2h-5.6v6.4h5.6v89.6h-5.6v6.4h5.6v16h-5.6v6.4h5.6v100.8h-5.6
	v6.4h5.6v44.8h-8.9L873.6,713.8l-22,35.9c0,0,130.4,93.5,184.7,144.7c46.4,43.6,107.2,97.8,150.7,143v126.1h291V993.3h112.8v-28.8
	V955V789.3v-24.8v-76.7L1429.1,535.5z M162.2,542.8v2.5h-2.6L162.2,542.8z M111,590.9l45.6-42.8v3.6h5.6v14.4h-5.6v6.4h2.5L111,620
	V590.9L111,590.9z M38,954.8H4.6V785.6c6.2-5.8,18.9-17.9,33.4-31.7V954.8L38,954.8z M38,743.5c-21.7,21.9-33.4,33.1-33.4,33.1
	v-12.1V735L38,702.2V743.5z M38,692.4l-33.4,33V691L38,659.6V692.4z M76.5,954.8H40.7V751.4c11.9-11.5,24.8-24,35.8-35.1V954.8z
	 M76.5,704.5c-13.8,14-25.8,26.2-35.8,36.2v-41.3l35.8-35.2V704.5z M76.5,654.3l-35.8,35.4v-32.6l35.8-33.7V654.3z M108.4,954.8
	H79.1V713.6c7-7.2,13.1-13.5,17.6-18.5c3.3-3.8,7.4-8.3,11.8-13.2v273.1H108.4z M108.4,671.4c-7,7.6-14.6,15.4-22.5,23.6
	c-2.3,2.4-4.5,4.6-6.8,6.9v-40.3l29.4-28.9v38.7H108.4z M108.4,622.7l-29.3,29v-30.7l29.3-27.6V622.7z M170.3,647.7h-13.6v6.4h13.6
	v19.2h-13.6v6.4h13.6v89.6h-13.6v6.4h13.6v16h-13.6v6.4h13.6v100.8h-13.6v6.4h13.6v44.8h-56.8v4.8H111v-276
	c19.5-21.9,45.7-51,59.1-66v35H170.3z M111,668.5v-38.4l51.1-50.3v16h7.4l0.7,4.8C170.3,600.7,148.3,628.6,111,668.5z M279,459.7h5
	v13.1h-5V459.7z M250.2,381.2h5v13.1h-5V381.2z M250.2,400.5h5v13.1h-5V400.5z M250.2,459.7h5v13.1h-5V459.7z M250.2,478.9h5V492h-5
	V478.9z M223,459.7h5v13.1h-5V459.7z M223,478.9h5V492h-5V478.9z M220.7,611.9h5V625h-5V611.9z M220.7,631.1h5v13.1h-5V631.1z
	 M227.8,865h-5v-16.3h5V865z M227.8,832.9h-5v-13h5V832.9z M229.4,760.9h-5v-17.8h5V760.9z M229.4,736.9h-5v-9.8h5V736.9z
	 M245.7,492h-5v-13.1h5V492z M245.7,472.8h-5v-13.1h5V472.8z M245.7,413.6h-5v-13.1h5V413.6z M245.7,394.4h-5v-13.1h5V394.4z
	 M251.8,866.7h-5v-16.3h5V866.7z M251.8,844.3h-5v-13.1h5V844.3z M251.8,760.9h-5v-17.8h5V760.9z M251.8,736.9h-5v-9.8h5V736.9z
	 M257.7,644.1h-5V631h5V644.1z M257.7,624.9h-5v-13h5V624.9z M263,866.7h-5v-16.3h5V866.7z M263,844.3h-5v-13.1h5V844.3z
	 M264.6,760.9h-5v-17.8h5V760.9z M264.6,736.9h-5v-9.8h5V736.9z M264.9,492h-5v-13.1h5V492z M264.9,472.8h-5v-13.1h5V472.8z
	 M264.9,413.6h-5v-13.1h5V413.6z M264.9,394.4h-5v-13.1h5V394.4z M279,478.9h5V492h-5V478.9z M287,865h-5v-16.3h5V865z M287,832.9
	h-5v-13h5V832.9z M287,760.9h-5v-17.8h5V760.9z M287,736.9h-5v-9.8h5V736.9z M289.8,644.1h-5V631h5V644.1z M289.8,624.9h-5v-13h5
	V624.9z M1363.4,459.7h5v13.1h-5V459.7L1363.4,459.7z M1363.4,478.9h5V492h-5V478.9L1363.4,478.9z M1362.1,727.1h5v9.8h-5V727.1z
	 M1336.1,381.2h5v13.1h-5V381.2z M1336.1,400.5h5v13.1h-5V400.5z M1336.1,459.7h5v13.1h-5V459.7z M1336.1,478.9h5V492h-5V478.9z
	 M1326.6,381.2h5v13.1h-5V381.2z M1331.9,727.1v9.8h-5v-9.8H1331.9z M1326.6,400.5h5v13.1h-5V400.5z M1326.6,459.7h5v13.1h-5V459.7z
	 M1301.7,611.9h5V625h-5V611.9z M1301.7,631.1h5v13.1h-5V631.1z M1309.5,865h-5v-16.3h5V865z M1309.5,832.9h-5v-13h5V832.9z
	 M1309.5,760.9h-5v-17.8h5V760.9z M1309.5,736.9h-5v-9.8h5V736.9z M1312.4,492h-5v-13.1h5V492z M1312.4,472.8h-5v-13.1h5V472.8z
	 M1326.6,478.9h5V492h-5V478.9z M1326.9,743.1h5V761h-5V743.1z M1333.5,866.7h-5v-16.3h5V866.7z M1333.5,844.3h-5v-13.1h5V844.3z
	 M1338.6,644.1h-5V631h5V644.1z M1338.6,624.9h-5v-13h5V624.9z M1344.7,866.7h-5v-16.3h5V866.7z M1344.7,844.3h-5v-13.1h5V844.3z
	 M1344.7,760.9h-5v-17.8h5V760.9z M1344.7,736.9h-5v-9.8h5V736.9z M1350.8,492h-5v-13.1h5V492z M1350.8,472.8h-5v-13.1h5V472.8z
	 M1350.8,413.6h-5v-13.1h5V413.6z M1350.8,394.4h-5v-13.1h5V394.4z M1362.1,743.1h5V761h-5V743.1z M1368.7,865h-5v-16.3h5V865z
	 M1368.7,832.9h-5v-13h5V832.9z M1370.7,644.1h-5V631h5V644.1z M1370.7,624.9h-5v-13h5V624.9z M1429.1,542.8l2.7,2.5h-2.7V542.8z
	 M1480.3,954.8h-2.4v-4.8h-56.7v-44.8h13.6v-6.4h-13.6V798.1h13.6v-6.4h-13.6v-16h13.6v-6.4h-13.6v-89.6h13.6v-6.4h-13.6v-19.2h13.6
	v-6.5h-13.6v-34.8c13.4,15,39.6,44,59.1,66L1480.3,954.8L1480.3,954.8z M1480.3,668.5c-37.2-40-59.1-67.8-59.1-67.8l0.7-4.8h7.4v-16
	l51.1,50.4L1480.3,668.5L1480.3,668.5z M1480.3,620l-48.1-47.6h2.5v-6.4h-5.6v-14.4h5.6v-3.6l45.6,42.8V620z M1512.4,954.8h-29.4
	V681.8c4.4,5,8.5,9.5,11.8,13.2c4.5,5,10.6,11.5,17.6,18.5L1512.4,954.8L1512.4,954.8z M1512.4,701.9c-2.3-2.3-4.5-4.5-6.8-6.9
	c-8.1-8.2-15.5-16.2-22.5-23.6v-38.6l29.4,28.9L1512.4,701.9L1512.4,701.9z M1512.4,651.7l-29.4-29v-29.3l29.4,27.6V651.7z
	 M1550.8,954.8H1515V716.3c11,11.1,23.8,23.6,35.8,35.1V954.8z M1550.8,740.8c-9.9-10.1-21.9-22.1-35.8-36.2v-40.3l35.8,35.2V740.8z
	 M1550.8,689.7l-35.8-35.4v-30.9l35.8,33.7V689.7z M1586.7,954.8h-33.4V754c14.3,13.8,27.2,25.8,33.4,31.7V954.8z M1586.7,764.6
	v12.1c0,0-11.5-11.3-33.4-33.1v-41.3l33.4,32.9V764.6z M1586.7,725.3l-33.4-33v-32.7l33.4,31.4V725.3z"/>
</svg>
