<?xml version="1.0" encoding="utf-8"?>
<!-- Generator: Adobe Illustrator 18.0.0, SVG Export Plug-In . SVG Version: 6.00 Build 0)  -->
<!DOCTYPE svg PUBLIC "-//W3C//DTD SVG 1.1//EN" "http://www.w3.org/Graphics/SVG/1.1/DTD/svg11.dtd">
<svg version="1.1" id="Слой_1" xmlns="http://www.w3.org/2000/svg" xmlns:xlink="http://www.w3.org/1999/xlink" x="0px" y="0px"
	 viewBox="112 0 566 1024" enable-background="new 112 0 566 1024" xml:space="preserve">
<path fill="#000000"      d="
	M454.6,157.9h-7.2v-4.1h7.2V157.9z M441.3,188.7h6.2v-5.1h-4.1v-3.1h-3.1v5.1h1V188.7z M424.8,170.2h4.1v-5.1h-4.1v-3.6v-3.6h-3.1
	v4.1h-3.1v6.2h6.2V170.2z M436.1,172.3H432v8.2h4.1V172.3z M444.3,172.3h6.2v-3.1h4.1v-4.1H451H448h-6.7v5.1h-1v6.2h4.1V172.3z
	 M426.8,222.7v-6.1l2.3-3.7l5.3-4.1l2.1-8.1l-2-2.4l-2.8-4.4h2.3v-5.1h-7.2v5.1h2.1l-3.7,5.1H425l0.3-0.8c0,0,0.2-5.1-1-4.8
	c-1.2,0.3-5.1-1.1-5.1-1.1l3.1-3.9l-0.6-2.9h3.2v-9.3h-8.2v4.7c-2.1,0-3.7-0.5-3.7-0.5l-3-0.6l-5.2,2.5c0,0-2.5,0.4-2.5,3
	c0,2.6,0,14.4,0,14.4h6.2l3.6,5.1h6.7h3.1l2.3-4.3l5.4,4.3h2.6l-5.1,4.1l0.5,4.1h-6.7v9.3H426.8z M529.8,32.2h7.2V25h-7.2V32.2z
	 M529.8,49.7h-4.1V58h4.1V49.7z M525.7,28.6v-4.1V13.7h-7.2v10.8v4.1v12.9h7.2V28.6z M537.5,10.3l4-6.9h-7.6l-4.1,2.1v8.2l-1.8,7.2
	l5.8-2.3L537.5,10.3z M489.7,64.7l7.7,5.3l3.1,4.3l5.4-2.3c0,0,3.6-4.8,4-4.2c0.4,0.5-1.4,3,0,4.2c1.4,1.2,0,4.6,0,4.6l0.5,4.6v7.7
	c0,0-3.1,1.5-3.1,4.8c0,3.2,0,9.6,0,9.6l3.3,4.4l3.9-5.9V95c0,0,5.7-4.4,4.4-6c-1.3-1.6,0.3-7.4,0.3-7.4h6.7v-9.3h-7.2v-6.2l3.9-3.9
	l3.7-4.8l-3.8-4.1l3.4-7.3v-2.5l-7,1.9l-3.9-4.5l-7-4.6l7.1-4.6l-2.1-3.6l-2.8-3.4c0,0-5.6,1.3-5.6,3.5c0,2.1-3.4,3.4-4.5,3.5v0.5
	h-6.2v9.3h3.6l0-0.2l6.4,1.7l2.8,6.4l-3.5,4V58l-2.8,2.9l-5.9-2.9h-2.6v-4.1h-5.1V58h5.1L489.7,64.7z M402.7,205l-2.3,0l4.3,8.6
	l3.8,5h6l2.6-5.1h3.6v-4.1h-4.1v3.6l-8.2-4.1v-3.6L402.7,205z M237.4,386.4h-7.2v4.1h7.2V386.4z M249.7,395.2v-3.1v-3.6h-8.2v3.6
	v3.1v5.7h8.2V395.2z M260,400.8h-8.2v5.1h8.2V400.8z M179.7,411.1h-5.1v4.1h5.1V411.1z M193.1,392.6h-10.3v8.2h10.3V392.6z
	 M255.9,558.4v-5.1h-4.1v5.1H255.9z M253.9,478.1h-4.1v9.3h4.1V478.1z M209.6,440v7.2h10.3v-3.1h3.1v-7.2h-5.1v3.1H209.6z
	 M228.1,429.7v7.2h5.1v-3.1h8.2v-8.2h-8.2v4.1h-2.6H228.1z M268.3,339.1h-6.2v6.2h6.2V339.1z M125.2,317.4h4.1v-5.1h-4.1V317.4z
	 M210.1,299.9h2.6c0,0-0.3-1.1,2.6,0.2c2.8,1.4,5.1,7,5.1,7h-5.7h-5.1v4.6v5.7l5.4,4.4l3.2-4.9l5.2-2.6l5.2-6c0,0,1.5-3.8,3.6-2.7
	c2.1,1.1,5.7-3.8,5.7-3.8s4-3.2,3.9-4.9c-0.1-1.6,3.9-3.2,3.9-3.2v-5.1l-3.9-7.8c0,0,2.6-5.4,4.2-3.8s6.2,3.2,6.2,3.2l3.9-2.7
	l4.4-4.3l-5.2-2.1l-0.9,3.1h-4.6l0.5-4l4.1-7.1c0,0,2-1.7,1.8-3.8c-0.2-2.2,0-10.3,0-10.3l-3.9-4.3l-6.2,3.2l-4.1,6.5l-8,4.8
	l-11.1,3.8v4.1l-2.8,6.8l0.8,3.5h-7.2v-4.1l-4,1.1l-4.3,6.5v5.8l4.4,5l-4,3.1L210.1,299.9z M191.1,344.7v4.6l2.6,8.2H188v8.6v6.8
	c0,0,1.8,5.1,3.1,6.7c1.3,1.6,0.7,5.3,2.4,6.2s5.5,0,5.5,0l0.3-3.5v-5.3V372l3.1-4.2v-3l-3.1-4.5v-5.8c0,0,0-0.2,0-0.5v-4.6
	c0-1,3.1-4.6,3.1-4.6l3.1-3.1v-2.6v-7.2v-5.1h-3.6h-2.3l-2.9,1h-3.6l-4.6,3.6l-5.1,4.2l5,6.2L191.1,344.7z M664,777.8l-11.2-9.2
	l-14-4.8l-11.8-0.5h-12.7l-7.3,1.3l-5.4,8.5l-3.2,3.2l-7-2.2l-5.4-4.9l0.5-7.6l6.5-4.3l6.5-7l1.6-11.9c0,0-4.3-5.4-5.4-7
	c-1.1-1.6-6.5-11.9-6.5-11.9l-6.5-4.3l-8.1-6.5l-7.6-5.9l-5.4-2.7l-6.5,0.5l-6.5-3.8l16.8,0.5l7.6,3.9l5.9,5.5h7.6l-0.6-5.9
	l-9.6-13.1l-6.3-13.1v-8l3.2-2.3l-4.2-5.4l-9.7-13l-4.3-7l-5.4-8.1l-8.6-7.6l-11.4-6.5l-9.7-2.7l-5.6-5.9l-4-9.2v-7.5l-5.8-11.5
	l-5.7-16.2l-3-16.8v-10.1l-2.7-9.4l-9.1-4.3l-8.6-11.9l-6.5-8.1c0,0-4.3-7.6-5.9-7.6s-7.6-2.2-7.6-2.2l-9.1-6.5l-9.3-4.6
	c0,0-5.9,3.5-6.5,4.6s-10.8,5.4-10.8,5.4l-22.2-3.2l10.3-2.2l9.7-9.3l6.5-4.8l8.1-2.7l5.4-2.2l4.3-3.8l-3.2-4.9c0,0-4.9-3.8-6.5-5.9
	c-1.6-2.2-3.2-6.5-3.2-6.5l-8.1,1.6l-4.9,3.2l-4.9,2.7l9.7-10.8c0,0,12.4-3.2,13.5-1.1c1.1,2.2,7,0,7,0l9.2-9.2l1.6-8.2l-3.8-4.2
	l7.6-5.9l6.5-9.4l4.3-13.4c0,0,3.8-6.4,3.8-8.6c0-2.2,4.3-17.8,4.3-17.8l9.2-13.5c0,0,4.3-7.5,2.7-10.5c-1.6-3-3.2-9.5-4.9-10.6
	s-8.1-5.9-10.3-6.5c-2.2-0.5-12.4-1.4-14.1,0.2s-5.4,2.9-5.4,2.9h-11c0,0-6.8-5.2-8.5-3.8s-10.3-0.4-10.3-0.4l-2.7,3.8l-7.6-1.1
	l-3.8-2.8l-7.6,3.3l-7,1.6l-11.3,3.2v2.3l-6.6,5.1h-6.8l-5.1,5.9l-5.4-3.2l2.7-3.2l4.9-3.2l2.2-3.4l-2.7-2.3h-5.8l-5,1l-3.8,3.2
	l12.4-10.4h8.7l6.4-5.2l2.7-5.1h-7.1h-6.2h-7.2l-6-5.1h12.2l2.9-3.9l3.8-7.7l9.7-8.2l10.3-5.2l8.1-12.7c0,0,2.7-2.2,4.3-2.7
	s5.4-3.2,7-6s4.3-6,5.4-7.6c1.1-1.6-1.6-6-1.6-6l2-9.2l2.6-4.9L414,231h-5.7c0,0-5.5-1.3-7.8,2.5c-2.3,3.8,0.9,3.1-2.3,3.7
	s-7.6-1.1-7.6-1.1s-1.1-2.2-4.3,0s-4.3,2.7-7,2.7S369,237,369,237l-5.9,4.3l-10.8,0.5l-4.9,5.9l-2.7,3.8l2.2-11.9l-4.9-1.1l-9.7,2.7
	l-3.8-4.9l-4.9-1.1l-6-0.5l-5,6.5v8.2l-3.9,9.1c0,0-0.4,2.2,1.2,5.4s2.2,7,2.2,7l-4.3-2.7l-7.6,0.5c0,0-4.3,1.6-2.7,3.8
	s4.3,10.7,4.3,10.7l0.5,3.2h-4.3l-2.2,1c0,0,1.1,2.6,3.8,5.3c2.7,2.7,6.5,8.6,6.5,8.6s-0.5,4.3-2.2,4.3s-6.5-1.5-6.5-1.5
	s-1.1,4-2.7,4s-6,0-6,0l-3.7-5.5l-1.1,6.4l-7.6,2.6c0,0-4.3,4.8-2.7,7.5s4.3,7.6,4.3,7.6l-3.2,6.5c0,0-1.1,2.5-1.6,5.3
	c-0.5,2.8-1.1,11.4-1.1,11.4l1.3,6.3l3.1,6.2v3.4l-2.8,2.5l-5-0.5l-6.1-4.9l2.9-6.7l-3.3-5.2v-1.7l-2.1,6.9l-4.1,4.6v-6.3l4.4-9.8
	l-4-8.8l-6.1-6.5l-4.1-3.2c0,0,0.8,3.8-0.2,5.4c-1,1.6-0.2,10-0.2,10v3.6l-3.9-0.5l-6-6.2l-2.9-4.8l-2.8,5.3v3.1l1,3.1h-9.3v6.2
	c0,0,3.6,2.4,4.6,4.8c1,2.4,3,5.1,4.5,5.6c1.5,0.5,3.2-2.7,3.2-2.7s0.7-5.3,3.6-2.9c2.9,2.4,4.1,5.7,4.1,5.7s-4.2,2.7,0,7.5
	c4.2,4.9,8.2,9.7,8.2,9.7h1.5c0,0,3.5-5.7,4.6-3c1.1,2.7,4.1,2.6,4.1,2.6s1.2,5.2,2.1,7.1c0.9,1.9,2,4.1,3.1,4.1
	c1.1,0,3.1-2.1,3.1-2.1s4.5-4.5,5-2.1c0.5,2.5,2.2,9.3,2.2,9.3s-8.4,3-7.2,5.1c1.2,2.1-0.4,4.4,2.3,5.1c2.7,0.8,5.9-5.1,4.9,0
	c-1.1,5.1-1.1,5.1-1.1,5.1l-6.1,4.2l-6.2,2.3l-6.2-2.3l-4.1,5c0,0,1.9,7.3,4.1,5.3c2.2-2,6.2,0.4,6.2,0.4s3.1,6.3,3.1,7.9
	c0,1.6-5.1-2.1-5.1-2.1l-6.2-2.1c0,0-3.9,0-4.1,2.1s0,5.4,0,5.4l2.1,7.5h9.8l-5.7,7l-2.1,5.4h-4.6c0,0-2.1-1.9-3.6-0.3
	s-7.2,4.3-4.1,5.9c3.1,1.6,7.3,3.2,7.3,3.2l5.1-2.7l6.2-2.7l5.1-1.1c0,0,4.3-4.3,5.4-2.7c1.1,1.6,4.4,2.2,4.7,2.2s3.8-1.1,3.8-1.1
	v-4.8v-5.1V440l4.7-0.5l7.2-6.7l8.2-10.8l5.4-2.2l0.8-2l1.4-3v10.8c0,0-2.5-3.3-4.7-0.5c-2.2,2.8-4.2,4.5-5.8,7.7
	c-1.6,3.2-6.4,7.2-6.4,7.2l-2.7,3.6l4.3,3.1l-2.2,3.9l-2.7,5.9l-2.7-1.1l-2.7,6.2l2.7,4h2.2l0,8.4c0,0-2.4,0.3-2.4,3.6
	s-3.7,12.9-3.7,12.9v9.1l4,14.9l-4,5.1v-4.6h-7.2v5.1h4.1l3.1,9.8v8.7l-4.1,7.5v9c0,0,4.2,1.4,4.4,0c0.2-1.4,5.2-2.6,5.2-2.6
	l4.4-4.8c0,0,1.1-4.9-0.5-5.4c-1.6-0.5,0-5.4,0-5.4l1.6-5.9l0.5-7l2.7-6.9l4.9-5.5l0.5-3.8l-5.4-8.8l0.5-9.1l4.9-3.3l12.4-16.8
	l-13.5,24.3l1.6,8.7l5.9,2.7l5.8,6.5l4.1,2.4v-10.8l4.5-4.6c0,0-1.5,8.2,0.1,8.8c1.6,0.5-1,4.5,0.1,9.3c1.1,4.8,9.2,8,9.2,8l6.5,9.7
	c0,0-2.2,1.1-4.3,5.4c-2.2,4.3-3.2,5.9-3.8,8.1c-0.5,2.2-3.2,9.4-3.2,9.4s-1.6,3.4-4.3,7.7c-2.7,4.3-5.9,15.5-5.9,15.5h-7l-1.6,10.4
	c0,0,3.8,6.1,5.9,6.1c2.2,0,6.5,13.3,8.1,13.3s4.1,0,4.1,0l4.1-6.4l5.4-3.9c0,0-1.1,1,2.7,2.6c3.8,1.6,6.6,2.1,6.6,2.1l4.9,5.1v-7.7
	c0,0-1-7.2,0-7.2c2.1,0,3.9,2.8,7.2,3.9c3.2,1.1,6.1,1.6,6.1,1.6l10.3-2.7l6.5-1.6l15.7-5.4l6.5-3.8l3.2,2.2l-7.2,3.8l-5.1,6.5
	c0,0-3.1,3.8,0,3.8c3.1,0,6.6,1,6.6,1l-0.4,5.6c0,0-3.7,0.3-4.3,2.5c-0.5,2.2-3.2,4.3-3.2,6.5c0,2.2-3.8,9.2-1.6,10.3
	c2.2,1.1,10.8,9.7,10.8,9.7s4.3,9.7,4.3,11.9c0,2.2,4.9,11.9,5.4,13.5c0.5,1.6,4.9,5.4,4.9,5.4l4.3-7.6l4-4.3l5.1,3.2v6
	c0,0,1.3,4.2,0.3,6.9c-1,2.7,0.9,6.5-1.8,6.5c-2.7,0-5.6-2.1-5.6,0c0,1,0.2,6.3,0.2,7.9c0,1.6,2.2,9.1,2.2,9.1l-0.5,7l-5.4,4.3
	l1.1,7.6l-1.6,7c0,0-5.9,1.6-4.3,3.8c1.6,2.2,3.8,5.4,3.8,5.4l3.8,4.3c0,0-3.2-1.1-4.9,0s-6.5-3.2-6.5-3.2l-4.3-2.2l-9.7,2.2
	l-10.8,1.1c0,0-3.8-4.3-4.9-2.6c-1.1,1.6-5.9,5.1-5.9,5.1h-7.7l-1-3.3l-3.8-1.8l-3.8-6l-8.1-2.7l-5.4,1.6l-2.7,3.2l-2.2,4.3
	c0,0-1.6,2.5,0.5,4.5c2.2,2,3.8,10.1,5.4,10.6s5.4-1.6,7,0c1.6,1.6,4.3,7.6,4.3,7.6l-5.9,3.2l-6.5,7.6l-8.7,4.9c0,0-5.9,6.5-3.2,7.6
	c2.7,1.1,5.4,3.2,7.6,2.7c2.2-0.5,4.3,0.1,4.3,0.1s3.8-7.7,5.4-8.2c1.6-0.5,4.3-3.8,7-2.7c2.7,1.1,4.9-1.1,5.9,2.7
	c1.1,3.8,0.8,8.2,0.8,8.2s0.8,1.5,0.8,4.8s0,9.8,0,9.8s3,11.9,3.6,14.6c0.5,2.7-6.9,11.4-6.9,11.4l-8,7l-16.7,5.9
	c0,0-2.7,2.8-4.3,4.5c-1.6,1.6-9.2,6.1-9.2,6.1h-5.7c0,0-6.7,2.2-7.2,3.8c-0.5,1.6-7.6,2-5.9,5.3c1.6,3.2,3.2,8,3.2,8s3.2-2.7,3.8,0
	c0.5,2.7-2.2,7-2.2,7s-2.7-0.5,0,4.3s2.7,4.9,2.7,4.9s4.3-3.8,7,0s8.6,2.7,8.6,2.7s2.2-3.8,4.4-4.3c2.2-0.5,6.5-5.4,6.5-5.4
	l10.3-1.1c0,0,0.5-1.1,4.3,2.2c3.8,3.2,9.2,2.7,9.2,2.7l-3.2,6.1c0,0-3.8,3.6-1.6,4.2c2.2,0.5,12.4,0,12.4,0l5.9-3.2l5.9,3.5
	l3.8,3.5l9.2,5.4l5.9,4.9l10.6-0.6l10-8.6l12.4-4.9l6.5-3.8l18.9-21.1l-14.1,22.2l-5.9,4.9L426.3,900l-5.9,5.4l1.6,9.7l-1.6,3.8
	l-8.1-3.2l-17.8-3.2h-10.8l-16.2,1.2l-8.7,5.3l-2.7,2.5l1.1,9.5h-6.4l-6-3.2l-2.9,2.9l-2.4,12v6.9l-11.4,15.4h-7.1l-6.4,6.8
	l-1.6,8.6h-3.3l-3.8,7.9l-7.6,5.6l-7,5h-6.3l-4.5,6.9l2.2,5.4h6.4l3.3-6.2l6.5,3.1l5.4,5.3l4.3,3.8l4.3-3.3l2.2-13l9.2-2.2l4.9-6.5
	l1.6-3.8c0,0,16.2-2.7,17.8-2.2c1.6,0.5,9.2,1.1,9.2,1.1l6.5-1.1c0,0,2.2,1.6,4.3,2.7c2.2,1.1,4.9,2.7,8.1,4.9c3.2,2.2,7,4.9,7,4.9
	l3.8-3.2l5.9-8.1l3.8-5.4l1.1-5.9l-0.5-7l2.2-6.5l5.9,1.1l5.9-4l9.2-4h7l11.4,4.5l9.2,6.4l2.7,4.1l1.1-5.7h7.5l7.6,0.1l6,2l3.9-0.7
	v-7.6l5.5-2.1c0,0,18-1.6,16.4-1.1c-1.6,0.5,0.2,4.9,0.2,4.9l9.7,5.9l9.8-1.6l4.3-4.5l-5.4-5.6h-6.4l-4.9,0.1l-3.8-2.3l6.5-2.2
	l1.6-4.9l7.6,4.3l9.7,0.5l8.1,3.2l8.1-0.5l12.4-3.8l9.2-2.2l10.3,2.7l14.6,2.7l11.4-5.9l14.1-5.9l9.7-0.5l5.9-4.9l9.7-10.8l10.8-2.2
	v-8.6l3.1-9.3v-5.2l-7.1,1.9l-12.9,0.5l-9.7,1.6l3.3-4.3l-3.2-3.2l-4.9,1.1l-2.2,2.2l-5.4,1.6l-3.2-2.2l5.9-4.3l-2.7-2.1h-3.3
	l-5.9,3.4l2.2-6.1l15.7-2.2l6.5-2.7l3.8-8.1l-3.2-4.9l-7-0.5l-2.2-2.2l7.6-1.6l7-2.7l5.9,2.2l5.9-4.9l0.5-6.5l11.4-13.5l3.5-2.7
	l2.9-9.2V823l5.1-7.3v-15.3V789L664,777.8z M242,502.5l-4.4,5.4l3.9,6.7v2.6l8.2-5v8c0,0-6.6,3.9-3.9,5.5c2.8,1.6,4.2,3.8,4.2,3.8
	l6.2-4.9c0,0,2.6-2.7,3.9-2.7s1.8-4.8,1.8-4.8V510l6.4-2.1l2.4-7.3l2.9-6.7l3.4-7l3.4-7V474l-3.3-2.5l-3.5,6c0,0-2,4.4-3.6,4.7
	s-5,4.7-5,4.7v4.6v4.1l-5.1,3.6v5.7l-5.9-7.7l-8.1,2.1L242,502.5z M312.2,524.7l-2.2-4.9l-2.1-5.1l-7.3,2.6l-3.5,5.3v7
	c0,0,1.3,8.1,2.9,9.7s7.7,2.7,7.7,2.7l4.4-2.7c0,0-1-2.7,0-4.3C313.2,533.3,312.2,524.7,312.2,524.7z M289.9,643.1v-4.4l-5-1.5
	l-0.7-5.4l-3.6-3.8v-3.7l3.7-0.4c0,0,0.4,2,2,3.6c1.6,1.6,3.5,4.3,3.5,4.3v2.8l4.1-4.4v-5.9l-3.7-7.1l-4.7-6.5l-8.1,1.3l-5.3,3h-3.9
	l5.4-6.2l6.9-3.5v-5.7l-3.3-3l-10.1-13l-3.7-8.7l-1.6-8.7l-7.5-3.2l-6.5-5c0,0-9.1-0.6-6.7,0l-7.8,4c0,0-3-0.1-4.9,2.1
	c-1.9,2.2-6.1,0-6.1,0s-7.8-2.8-7.2,1.1c0.7,3.9-2.5,10.6-2.5,10.6h-5.2h-8.2l-6.2,3.4v7.9l-6.1,9.4l-3.7,7.5l-4.7,2.6h-11.2
	l-2.3,4.7l4.9,5.3l3.8,3.2l-8.7,3.9c0,0-3.2-0.9-4.3,0c-1.1,0.9-5.4,4.7-5.4,4.7l-2.7,4.3l6.5,8.7l7,7l3.8,5.9l6.5,3.2l5.9,3.8
	c0,0,4.9,0.5,7.6,0c2.7-0.5,7.3,0.2,7.3,0.2l4-6.2l3.2-5.9l-1.6-4.3l7.2-6.5c0,0,6.1-2.7,5.1-1.1c-0.9,1.6,3.1,8.7,3.1,8.7l2.6,7.6
	l7.7,1.6l2.1,6.2l3.1,5.7h7.7h5.1c0,0,5.3-4.5,5.7-2.9s7.2,7,7.2,7h5.7l5.9-8.2l2.9-9.3l3.6-3.8l3.3-1.1L289.9,643.1z"/>
</svg>
