<?xml version="1.0" encoding="utf-8"?>
<!-- Generator: Adobe Illustrator 18.0.0, SVG Export Plug-In . SVG Version: 6.00 Build 0)  -->
<!DOCTYPE svg PUBLIC "-//W3C//DTD SVG 1.1//EN" "http://www.w3.org/Graphics/SVG/1.1/DTD/svg11.dtd">
<svg version="1.1" id="Слой_1" xmlns="http://www.w3.org/2000/svg" xmlns:xlink="http://www.w3.org/1999/xlink" x="0px" y="0px"
	 viewBox="0 0 1024 768" enable-background="new 0 0 1024 768" xml:space="preserve">
<path fill="#000000"      d="
	M959.7,247.4c0,0,16.5-112.7,64.3-156.7c0,0-68.2,28.2-118.7,77.1c0,0-31.3,32.9-36.8,33.4c0,0,32.4,3.3,53.3-13.2
	c0,0-19.8,30.8-23.1,38.5c0,0-43.4-25.3-79.2,3.3c0,0-40.1,32.4-17.6,77c0,0,19.8,36.3,58.8,27.5c0,0,33.5-2.7,41.2-36.3
	c0,0,10.4,51.1-53.3,62.1c0,0-34.1,2.2-77-20.3c0,0-55.5-30.2-138.5-17.6c0,0-12.6,2.2-14.8,6c0,0,18.1-40.1,83-35.2
	c0,0,22,11,26.9,10.4c0,0,4.4,10.4-3.8,13.2c0,0,13.7,3.8,15.9-13.2c0,0,7-11.1-9.7-18.9l-2.9-1.9c-9.6-45.7,7.7-60,7.7-60
	c15.4-19.2,43.6-21.7,43.6-21.7s20.2,6.2,24.3,5c0,0,5.3,8.3-1.3,11.9c0,0,12.2,1.3,11.5-13.7c0,0,4.8-10.6-12.7-15.3l-4.2-5.9
	c-16.4-27-9.1-65.3-9.1-65.3C802.4,44.7,840.4,38,840.4,38s10.4,1.1,15.7-7.5c0,0,5.3,8.3-1.3,11.9c0,0,12.2,1.3,11.5-13.7
	c0,0,2.2-10-8.8-10c0,0-2.7-7.7-17-7.7c0,0-6-13.2-26.3,0c0,0-48.5,46.7-97.9,54.4c0,0-46.2,7.8-131.7,9.6c0,0-83.8-1.4-134.3,52.5
	c0,0-28.5,34.2-26.8,82c0,0-0.1,100.5-38.6,114.8l-12.8-12.6c5.3-17,23.7,0,23.7,0c13.1-31.9-17.9-43.8-17.9-43.8
	c-9.5-6.7-4.5-17.7-4.5-17.7c25.3-10.4,23.1,25.3,23.1,25.3c37.9-32.4-1.1-61-1.1-61c-14.3-11-7.7-21.4-7.7-21.4
	c18.7-15.9,20.9,21.4,20.9,21.4c33.5-46.7-20.9-75.9-20.9-75.9c-6-3.8,1.6-8.8,1.6-8.8c19.8-4.4,22.5,12.6,22.5,12.6
	c5.5-41.2-27.5-53.3-27.5-53.3s33.5-34.6,26.4-60.5c0,0-11.5,19.8-40.7,17.6c0,0,17-17.6,11.5-31.3c0,0-10.4,15.9-33,20.3
	c0,0-33,2.2-37.9,11c-3.3,5.8-55-3.3-55-3.3c-31.3,2.7-24.2,26.4-24.2,26.4c-9.9-6-50-11-50-11c-48.9,0.5-61.6,20.9-61.6,20.9
	c22-11.5,39.6,6.6,39.6,6.6c-6.6,7.7-7.7,40.1-7.7,40.1c-29.1,13.2-50.6-10.4-50.6-10.4l26.9-3.3C100,107.8,50,52.3,50,52.3
	c17.6,83.5,47.3,102.2,47.3,102.2c-4.4-5.5-3.3-30.8-3.3-30.8c2.2,2.2,20.9,13.2,20.9,13.2c17.6,10.4,55.5,1.1,55.5,1.1
	c4.4,34.6-33.5,46.7-33.5,46.7c34.6,3.8,55.5-7.1,55.5-7.1c-2.2,10.4-17,15.9-17,15.9c22.5,2.7,40.1-15.9,40.1-15.9
	c-0.5,12.6-13.7,20.9-13.7,20.9c22.5-4.4,39-23.6,39-23.6c10.4,0,22.5,18.7,22.5,18.7c-11.5,10.4-3.8,23.1-3.8,23.1
	c-20.9,12.6-16.5,22.5-16.5,22.5c-21.4,12.6-15.9,25.3-15.9,25.3c-26.9,17-17.6,31.9-17.6,31.9c-24.2,15.4-17,37.9-17,37.9
	c-20.3,17.6-8.8,40.1-8.8,40.1c-13.7,24.2,1.6,36.8,1.6,36.8c-4.4,1.6-6.6,12.1-6.6,12.1s-25.8-40.7-34.1-75.3
	c0,0-7.1-37.9-15.4-42.3c0,0-23.7-25.8-18.5-57.7c0,0,4.8-21.4-9-23.6c0,0-12.6-27.5-39-7.7c0,0,18.1,0.5,16.5,8.8
	c0,0-11,14.8,1.6,28.6l3.3,6.6l-11-9.9c0,0-2.2-19.2-22-18.1c0,0-37.9-12.6-34.1,22.5c0,0,6.6-12.1,20.9-4.4c0,0-2.7,17.6,18.1,19.2
	c0,0,14.8,8.2,15.9,20.9c0,0-9.3-3.8-19.8-2.7c0,0-18.7-12.1-30.2,0c0,0-29.1,5.5-11,31.3c0,0-0.5-14.3,8.8-12.1
	c0,0,13.2,17.6,31.3,3.8c0,0,19.1,0.1,20.8,6.4c0,0,4.5,26,15.5,30.9c0,0-1.1,18.1-7.1,23.1c0,0-23.1,19.2-10.4,33.5
	c0,0-8.2,18.1-15.9,1.1c0,0,7.7,35.2,33,13.2c0,0,20.3-0.5,17-33.4l3.3-4c0,0,6,82.5,44,164.4c0,0,11.5,42.3-36.3,25.3
	c0,0,44.5,45.6,77-8.2c0,0,37.9-9.3,48.9-24.7c0,0,22.5,19.2,29.1,11.5c0,0,4.4,13.2,7.7,9.3l-1.8,16.8c0,0-14.8,97.7-57.6,118.1
	c0,0-3.3,7.9-29.6-19.4c0,0-9.3-27.3-28.6-23.3c0,0-34.6-6.3-33,24.4c0,0,11-13.6,18.7-1.7c0,0-2.2,7.4,1.7,9.6
	c0,0-12.6-0.6-14.3,6.8c0,0-32.4-1.1-17,36.3c0,0,2.2-18.7,14.3-13.6c0,0,4.4,7.9,13.7,9.6c0,0-33,23.8-1.1,43.7
	c0,0-2.7-21,8.2-14.2c0,0,17,15.8,32.9-4.1c0,0,9.9-11.9,21.4-6.2c0,0,6.5,13.5,67.6-4.2c0,0,33-5.9,41.8-1.3
	c0,0,23.6,14.2,31.9,1.7c0,0,12.1-2.3,8.2,14.8c0,0,33.4-17,0.8-39.1c0,0-6.8-23.3-35.9-10.8c0,0-40.7,22.2-31.9-9.7
	c0,0,18.7-44.5,52.2-75.9c0,0,15.9-14.8,19.8-20.9c0,0,51.1-6,23.1,26.9c0,0,42.9-12.1,37.9-47.8c0,0-1.1-7.7-6-12.1
	c0,0,9.3-2.2,12.1-11.5c0,0,26.9,8.4,36.3-14.7c0,0,26.9,5.3,34.1-18h8.5c0,0,5.4,17.7,21,19.4c0,0,12.8,26.5,32.6,23.2
	c0,0,4.4,13,25.3,14.1c0,0-20.9,75.7-70.6,94.3c0,0-14.6,3.4-39.8-18c0,0-9.3-24.9-28.6-21.2c0,0-34.6-5.7-33,22.2
	c0,0,11-12.4,18.7-1.6c0,0-2.2,6.7,1.6,8.8c0,0-12.6-0.5-14.3,6.2c0,0-32.4-1-17,33.1c0,0,2.2-17.1,14.3-12.4c0,0,4.4,7.2,13.7,8.8
	c0,0-39.1,27.9-7.2,46c0,0-2.8-19.1,8.2-12.9c0,0,25.9,15.3,41.9-2.8c0,0,24.2-10.4,35.7-5.2c0,0,15.2,7.2,50.4-13
	c0,0,33.1-3.8,41.9,0.3c0,0,23.6,12.9,31.9,1.6c0,0,12.1-2.1,8.2,13.5c0,0,33.4-15.5,0.8-35.7c0,0-6.8-21.2-35.9-9.8
	c0,0-19.9,13.2-17.2-4.4c0,0,69.1-73.7,67.5-74.2c0,0,21-19.8,31.5,0c0,0,3.8,6.6-10.4,16.5c0,0,33.7-5.1,38.6-35.9
	c0,0,1.5-22.4-26.5-33.4c0,0-23.1-11.5-14.8-32.4c0,0,14.3,10.4,23.1,4.9c0,0,10.4,22.5,35.2,18.1c0,0,9.9,19.8,34.1,8.8
	c0,0,15.4,19.2,33.5,8.2c0,0,9.3,17,36.8,7.1c0,0,44,77,13.2,117.6c0,0-3.3,7.7-29.7-18.7c0,0-9.3-26.4-28.6-22.5
	c0,0-34.6-6-33,23.6c0,0,11-13.2,18.7-1.6c0,0-2.2,7.1,1.6,9.3c0,0-12.6-0.5-14.3,6.6c0,0-32.4-1.1-17,35.2c0,0,2.2-18.1,14.3-13.2
	c0,0,4.4,7.7,13.7,9.3c0,0-33,23.1-1.1,42.3c0,0-2.7-20.3,8.2-13.7c0,0,19.8,17.6,35.7-1.6c0,0,24.2-11,35.7-5.5
	c0,0,26.9,18.1,62.1-3.3c0,0,21.4-9.3,30.2-4.9c0,0,23.6,13.7,31.9,1.6c0,0,12.1-2.2,8.2,14.3c0,0,33.4-16.5,0.8-37.9
	c0,0-6.8-22.5-35.9-10.4c0,0-25.3,14.3-32.4-24.2c0,0-6.6-92.3-8.2-92.9c0,0,29.7-10.4,20.3,22.5c0,0,31.9-26.9,12.6-59.4
	c0,0-11-13.7-31.9-14.8c0,0-27.5-3.3-50-39.6l-13.7-28c0,0,55-15.9,81.9-57.2c0,0,30.2-45.1,21.4-101.1c0,0-4.4-23.6-26.4-48.9
	c0,0,6-30.2,11.5-39.6C937.2,205.1,950.3,243,959.7,247.4z M870.8,290.8c-18.7,9.7-23.9-7.7-23.9-7.7c-2.6-29.7,33.5-15.5,33.5-15.5
	C880.5,283.8,870.8,290.8,870.8,290.8z M180.4,136.8c27.1-7.7,41.9,6.4,41.9,6.4C196.5,155.5,180.4,136.8,180.4,136.8z"/>
</svg>
